<svg width="820" height="656" viewBox="0 0 820 656" fill="none" xmlns="http://www.w3.org/2000/svg">
<circle cx="404" cy="320" r="320" fill="#762E90" fill-opacity="0.07"/>
<path d="M410 655.174C636.437 655.174 820 640.189 820 621.705C820 603.22 636.437 588.235 410 588.235C183.563 588.235 0 603.22 0 621.705C0 640.189 183.563 655.174 410 655.174Z" fill="#E6E6E6"/>
<path d="M199.416 527.799C176.851 562.404 183.034 606.416 183.034 606.416C183.034 606.416 225.802 594.324 248.367 559.719C270.932 525.115 264.749 481.103 264.749 481.103C264.749 481.103 221.981 493.195 199.416 527.799Z" fill="#3F3D56"/>
<path d="M182.914 606.014C182.914 606.014 182.365 605.926 181.354 605.721C180.547 605.558 179.437 605.324 178.081 605.003C165.961 602.145 133.738 592.485 112.671 567.088C86.3039 535.286 87.4142 490.855 87.4142 490.855C87.4142 490.855 127.731 497.406 154.297 525.965C155.448 527.192 156.568 528.464 157.657 529.781C180.6 557.451 182.739 594.682 182.908 603.886C182.932 605.266 182.914 606.014 182.914 606.014Z" fill="#EB899B"/>
<path d="M166.652 527.799C189.217 562.404 183.034 606.416 183.034 606.416C183.034 606.416 140.266 594.324 117.701 559.719C95.1365 525.115 101.319 481.103 101.319 481.103C101.319 481.103 144.087 493.195 166.652 527.799Z" stroke="#3F3D56" stroke-width="2" stroke-miterlimit="10"/>
<path opacity="0.1" d="M182.908 603.886C182.312 604.605 181.786 605.219 181.354 605.721C180.395 606.814 179.852 607.387 179.852 607.387C179.852 607.387 179.192 606.557 178.081 605.003C171.986 596.506 152.38 566.293 153.894 531.394C153.975 529.565 154.11 527.755 154.297 525.965C155.448 527.192 156.568 528.464 157.657 529.781C180.6 557.451 182.739 594.682 182.908 603.886Z" fill="black"/>
<path d="M216.366 533.917C214.583 575.19 183.945 607.387 183.945 607.387C183.945 607.387 156.199 572.667 157.982 531.394C159.766 490.121 190.404 457.925 190.404 457.925C190.404 457.925 218.15 492.644 216.366 533.917Z" fill="#FDE0E5"/>
<path d="M183.945 606.219L190.681 459.608" stroke="#3F3D56" stroke-width="2" stroke-miterlimit="10"/>
<path d="M475.161 220.142C464.94 223.594 455.679 231.667 453.586 242.251C452.616 247.157 453.211 252.258 452.394 257.192C450.5 268.635 441.518 277.374 433.233 285.491C424.948 293.609 416.393 303.041 415.788 314.624C415.126 327.307 424.324 339.19 422.733 351.791C420.883 366.43 405.421 375.916 401.599 390.168C399.047 399.685 402.174 409.937 407.32 418.339C417.125 434.352 433.886 445.222 451.735 451.05C469.584 456.878 488.593 458.104 507.368 458.3C530.229 458.54 555.05 456.577 572.227 441.489C582.038 432.794 588.2 420.711 589.476 407.663C591.108 390.186 583.813 372.127 588.845 355.311C592.011 344.727 599.952 335.062 598.767 324.079C597.609 313.34 588.229 305.728 581.795 297.052C575.787 288.952 572.142 279.387 568.569 269.956L556.345 237.688C553.941 231.345 551.303 224.674 545.947 220.51C535.921 212.716 519.8 214.248 508.076 215.855C497.201 217.346 485.62 216.609 475.161 220.142Z" fill="#2F2E41"/>
<path d="M478.99 314.137C478.99 314.137 484.409 331.749 443.766 352.071C403.123 372.392 447.83 394.069 447.83 394.069L495.247 404.907C495.247 404.907 544.019 398.133 549.438 390.004C554.857 381.876 564.34 354.78 561.631 350.716C559.604 347.822 557.338 345.103 554.857 342.587C554.857 342.587 522.342 337.168 523.697 322.266C525.052 307.363 478.99 314.137 478.99 314.137Z" fill="#FFB9B9"/>
<path opacity="0.1" d="M478.99 314.137C478.99 314.137 484.409 331.749 443.766 352.071C403.123 372.392 447.83 394.069 447.83 394.069L495.247 404.907C495.247 404.907 544.019 398.133 549.438 390.004C554.857 381.876 564.34 354.78 561.631 350.716C559.604 347.822 557.338 345.103 554.857 342.587C554.857 342.587 522.342 337.168 523.697 322.266C525.052 307.363 478.99 314.137 478.99 314.137Z" fill="black"/>
<path d="M505.408 341.91C529.351 341.91 548.761 322.5 548.761 298.557C548.761 274.614 529.351 255.204 505.408 255.204C481.465 255.204 462.055 274.614 462.055 298.557C462.055 322.5 481.465 341.91 505.408 341.91Z" fill="#FFB9B9"/>
<path d="M500.666 390.004C500.666 390.004 448.456 386.186 447.465 350.161C447.465 350.161 428.863 348.006 423.444 353.425C418.025 358.844 400.413 362.909 400.413 376.456C400.413 390.004 430.218 430.647 430.218 430.647C430.218 430.647 446.475 484.838 439.701 494.322C432.928 503.805 431.573 528.191 431.573 528.191C431.573 528.191 499.311 522.772 510.15 528.191C520.988 533.61 564.34 533.61 567.05 528.191C569.759 522.772 564.34 455.033 564.34 455.033C564.34 455.033 576.533 438.776 573.824 419.809L606.338 381.875C606.338 381.875 594.145 345.297 575.179 345.297C575.179 345.297 549.438 338.523 548.761 341.91C548.083 345.297 561.631 383.23 500.666 390.004Z" fill="#EB899B"/>
<path d="M378.737 509.224C378.737 509.224 390.93 528.191 422.089 532.255C453.249 536.319 458.668 525.481 455.959 522.772C453.249 520.062 420.734 507.869 420.734 507.869L401.768 492.967L378.737 509.224Z" fill="#FFB9B9"/>
<path d="M600.919 492.967L565.695 513.288C565.695 513.288 519.633 510.579 537.245 524.127C554.857 537.674 587.371 532.255 587.371 532.255L618.531 517.353L600.919 492.967Z" fill="#FFB9B9"/>
<path d="M424.799 528.191C424.799 528.191 392.284 608.122 431.573 620.315C470.861 632.508 579.243 629.799 603.629 613.542C628.015 597.284 634.788 575.608 630.724 568.834C626.66 562.06 599.564 543.093 580.598 541.739C561.631 540.384 424.799 528.191 424.799 528.191Z" fill="#2F2E41"/>
<path opacity="0.05" d="M424.799 528.191C424.799 528.191 392.284 608.122 431.573 620.315C470.861 632.508 579.243 629.799 603.629 613.542C628.015 597.284 634.788 575.608 630.724 568.834C626.66 562.06 599.564 543.093 580.598 541.739C561.631 540.384 424.799 528.191 424.799 528.191Z" fill="black"/>
<path d="M578.277 533.157C578.277 533.157 693.043 491.612 691.689 541.739C690.334 591.865 618.531 605.413 618.531 605.413L596.855 608.122L477.635 612.187C477.635 612.187 481.699 590.51 472.216 587.801C472.216 587.801 503.376 579.672 504.73 578.318C506.085 576.963 583.307 549.867 588.726 548.513C594.145 547.158 610.403 536.32 622.595 537.674C622.595 537.674 636.143 526.836 651.046 529.546L609.048 532.255L578.277 533.157Z" fill="#2F2E41"/>
<path opacity="0.1" d="M578.277 533.157C578.277 533.157 693.043 491.612 691.689 541.739C690.334 591.865 618.531 605.413 618.531 605.413L596.855 608.122L477.635 612.187C477.635 612.187 481.699 590.51 472.216 587.801C472.216 587.801 503.376 579.672 504.73 578.318C506.085 576.963 583.307 549.867 588.726 548.513C594.145 547.158 610.403 536.32 622.595 537.674C622.595 537.674 636.143 526.836 651.046 529.546L609.048 532.255L578.277 533.157Z" fill="black"/>
<path d="M558 539.885L572.469 572.898L660.529 541.738L667.303 524.126L644.272 520.062L597.97 528.19L577.888 533.61L558 539.885Z" fill="#2F2E41"/>
<path opacity="0.1" d="M558 539.885L572.469 572.898L660.529 541.738L667.303 524.126L644.272 520.062L597.97 528.19L577.888 533.61L558 539.885Z" fill="black"/>
<path d="M370.608 579.672C370.608 579.672 396.349 612.187 426.154 620.315C455.959 628.444 472.216 617.606 472.216 617.606L462.732 579.672L458.668 555.286L441.056 543.093L405.832 526.836L363.834 513.288C363.834 513.288 346.222 510.579 346.222 513.288C346.222 515.998 362.479 556.641 362.479 556.641L370.608 579.672Z" fill="#2F2E41"/>
<path d="M401.768 597.284C401.768 597.284 407.187 636.573 413.961 639.282C420.735 641.992 441.056 636.573 446.475 633.863C451.894 631.153 470.314 618.652 470.314 618.652C470.314 618.652 405.832 594.575 401.768 597.284Z" fill="#F2F2F2"/>
<path d="M525.052 601.349L550.793 605.412L548.083 636.573L512.18 627.852L525.052 601.349Z" fill="#FFB9B9"/>
<path d="M541.18 610.02C541.18 610.02 529.116 624.38 541.309 632.508L549.438 639.282C549.438 639.282 576.533 644.701 579.243 647.411C581.952 650.12 592.791 643.346 592.791 643.346C592.791 643.346 594.145 602.703 592.791 599.994C591.436 597.284 575.179 594.575 573.824 597.284C572.469 599.994 556.212 604.058 546.728 601.348L541.18 610.02Z" fill="#F2F2F2"/>
<path d="M432.928 537.674C432.928 537.674 338.094 482.129 323.191 502.45C308.288 522.772 292.031 551.222 335.384 572.898C378.737 594.575 514.214 639.282 514.214 639.282C514.214 639.282 534.535 608.122 534.535 599.994C534.535 599.994 462.732 567.479 450.54 564.77C438.347 562.06 389.575 530.9 382.801 528.191C376.027 525.481 366.544 517.353 366.544 517.353L432.928 537.674Z" fill="#2F2E41"/>
<path d="M405.832 369.683L400.413 373.747C400.413 373.747 388.22 404.907 386.865 422.519C385.51 440.131 369.253 494.322 370.608 501.095C371.963 507.869 373.318 513.288 381.446 520.062C381.446 520.062 392.284 495.676 411.251 499.741L434.282 415.745L405.832 369.683Z" fill="#EB899B"/>
<path d="M595.5 369.683L606.338 381.876C606.338 381.876 613.112 398.133 613.112 402.197C613.112 406.261 626.66 465.871 628.014 468.581C629.369 471.29 634.788 505.16 628.014 513.288C621.241 521.417 609.048 526.836 609.048 526.836C609.048 526.836 617.176 498.386 591.436 497.031L594.145 486.193L569.759 404.907L595.5 369.683Z" fill="#EB899B"/>
<path d="M408.542 462.957V534.318C408.542 538.824 410.314 543.149 413.477 546.359C416.64 549.569 420.938 551.406 425.444 551.472L574.682 553.683C579.161 553.75 583.489 552.061 586.74 548.979C589.991 545.896 591.907 541.665 592.08 537.188L594.825 465.819C594.913 463.533 594.542 461.252 593.736 459.112C592.93 456.971 591.703 455.013 590.129 453.353C588.555 451.693 586.665 450.365 584.569 449.447C582.474 448.528 580.217 448.038 577.929 448.005L425.947 445.802C423.673 445.769 421.415 446.188 419.305 447.036C417.195 447.883 415.274 449.141 413.655 450.738C412.035 452.334 410.749 454.236 409.871 456.334C408.994 458.432 408.542 460.683 408.542 462.957Z" fill="#3F3D56"/>
<path d="M507.95 297.167C533.723 297.167 554.615 285.917 554.615 272.04C554.615 258.162 533.723 246.912 507.95 246.912C482.178 246.912 461.285 258.162 461.285 272.04C461.285 285.917 482.178 297.167 507.95 297.167Z" fill="#2F2E41"/>
<path d="M499.989 511.256C505.974 511.256 510.827 506.404 510.827 500.418C510.827 494.432 505.974 489.58 499.989 489.58C494.003 489.58 489.15 494.432 489.15 500.418C489.15 506.404 494.003 511.256 499.989 511.256Z" fill="#F2F2F2"/>
<path d="M794.99 498.222V621.989C794.99 624.115 793.845 624.419 791.986 625.45C785.712 628.93 770.246 635.131 751.677 625.317C749.771 624.31 748.598 623.969 748.598 621.813V499.015C748.598 499.015 772.19 508.531 794.99 498.222Z" fill="#2F2E41"/>
<path d="M771.794 503.065C784.604 503.065 794.99 500.86 794.99 498.139C794.99 495.418 784.604 493.213 771.794 493.213C758.983 493.213 748.598 495.418 748.598 498.139C748.598 500.86 758.983 503.065 771.794 503.065Z" fill="#3F3D56" stroke="#FDE0E5" stroke-miterlimit="10"/>
<g opacity="0.8">
<path opacity="0.8" d="M792.877 550.137C793.164 550.137 793.398 549.904 793.398 549.617C793.398 549.329 793.164 549.096 792.877 549.096C792.59 549.096 792.357 549.329 792.357 549.617C792.357 549.904 792.59 550.137 792.877 550.137Z" fill="black"/>
<path opacity="0.8" d="M790.235 550.875C790.522 550.875 790.755 550.643 790.755 550.355C790.755 550.068 790.522 549.835 790.235 549.835C789.948 549.835 789.715 550.068 789.715 550.355C789.715 550.643 789.948 550.875 790.235 550.875Z" fill="black"/>
<path opacity="0.8" d="M786.971 551.916C787.258 551.916 787.491 551.683 787.491 551.396C787.491 551.109 787.258 550.875 786.971 550.875C786.683 550.875 786.45 551.109 786.45 551.396C786.45 551.683 786.683 551.916 786.971 551.916Z" fill="black"/>
<path opacity="0.8" d="M781.118 553.177C781.405 553.177 781.638 552.944 781.638 552.657C781.638 552.369 781.405 552.136 781.118 552.136C780.831 552.136 780.598 552.369 780.598 552.657C780.598 552.944 780.831 553.177 781.118 553.177Z" fill="black"/>
<path opacity="0.8" d="M774.948 553.924C775.235 553.924 775.468 553.691 775.468 553.404C775.468 553.117 775.235 552.884 774.948 552.884C774.66 552.884 774.427 553.117 774.427 553.404C774.427 553.691 774.66 553.924 774.948 553.924Z" fill="black"/>
<path opacity="0.8" d="M768.557 554.218C768.844 554.218 769.077 553.985 769.077 553.698C769.077 553.41 768.844 553.177 768.557 553.177C768.27 553.177 768.037 553.41 768.037 553.698C768.037 553.985 768.27 554.218 768.557 554.218Z" fill="black"/>
<path opacity="0.8" d="M759.384 552.957C759.672 552.957 759.905 552.724 759.905 552.437C759.905 552.149 759.672 551.916 759.384 551.916C759.097 551.916 758.864 552.149 758.864 552.437C758.864 552.724 759.097 552.957 759.384 552.957Z" fill="black"/>
<path opacity="0.8" d="M762.423 553.698C762.711 553.698 762.944 553.465 762.944 553.177C762.944 552.89 762.711 552.657 762.423 552.657C762.136 552.657 761.903 552.89 761.903 553.177C761.903 553.465 762.136 553.698 762.423 553.698Z" fill="black"/>
<path opacity="0.8" d="M753.707 551.916C753.994 551.916 754.227 551.683 754.227 551.396C754.227 551.109 753.994 550.875 753.707 550.875C753.419 550.875 753.186 551.109 753.186 551.396C753.186 551.683 753.419 551.916 753.707 551.916Z" fill="black"/>
<path opacity="0.8" d="M756.441 552.437C756.729 552.437 756.962 552.204 756.962 551.916C756.962 551.629 756.729 551.396 756.441 551.396C756.154 551.396 755.921 551.629 755.921 551.916C755.921 552.204 756.154 552.437 756.441 552.437Z" fill="black"/>
<path opacity="0.8" d="M750.71 550.875C750.998 550.875 751.231 550.643 751.231 550.355C751.231 550.068 750.998 549.835 750.71 549.835C750.423 549.835 750.19 550.068 750.19 550.355C750.19 550.643 750.423 550.875 750.71 550.875Z" fill="black"/>
<path opacity="0.8" d="M783.982 552.657C784.27 552.657 784.503 552.424 784.503 552.136C784.503 551.849 784.27 551.616 783.982 551.616C783.695 551.616 783.462 551.849 783.462 552.136C783.462 552.424 783.695 552.657 783.982 552.657Z" fill="black"/>
<path opacity="0.8" d="M777.944 553.698C778.231 553.698 778.464 553.465 778.464 553.177C778.464 552.89 778.231 552.657 777.944 552.657C777.656 552.657 777.423 552.89 777.423 553.177C777.423 553.465 777.656 553.698 777.944 553.698Z" fill="black"/>
<path opacity="0.8" d="M771.391 554.218C771.679 554.218 771.912 553.985 771.912 553.698C771.912 553.41 771.679 553.177 771.391 553.177C771.104 553.177 770.871 553.41 770.871 553.698C770.871 553.985 771.104 554.218 771.391 554.218Z" fill="black"/>
<path opacity="0.8" d="M765.43 554.218C765.718 554.218 765.951 553.985 765.951 553.698C765.951 553.41 765.718 553.177 765.43 553.177C765.143 553.177 764.91 553.41 764.91 553.698C764.91 553.985 765.143 554.218 765.43 554.218Z" fill="black"/>
</g>
<g opacity="0.8">
<path opacity="0.8" d="M792.877 552.698C793.164 552.698 793.398 552.465 793.398 552.177C793.398 551.89 793.164 551.657 792.877 551.657C792.59 551.657 792.357 551.89 792.357 552.177C792.357 552.465 792.59 552.698 792.877 552.698Z" fill="black"/>
<path opacity="0.8" d="M790.235 553.437C790.522 553.437 790.755 553.204 790.755 552.916C790.755 552.629 790.522 552.396 790.235 552.396C789.948 552.396 789.715 552.629 789.715 552.916C789.715 553.204 789.948 553.437 790.235 553.437Z" fill="black"/>
<path opacity="0.8" d="M786.971 554.477C787.258 554.477 787.491 554.244 787.491 553.957C787.491 553.67 787.258 553.437 786.971 553.437C786.683 553.437 786.45 553.67 786.45 553.957C786.45 554.244 786.683 554.477 786.971 554.477Z" fill="black"/>
<path opacity="0.8" d="M781.118 555.738C781.405 555.738 781.638 555.505 781.638 555.218C781.638 554.93 781.405 554.697 781.118 554.697C780.831 554.697 780.598 554.93 780.598 555.218C780.598 555.505 780.831 555.738 781.118 555.738Z" fill="black"/>
<path opacity="0.8" d="M774.948 556.485C775.235 556.485 775.468 556.252 775.468 555.965C775.468 555.678 775.235 555.445 774.948 555.445C774.66 555.445 774.427 555.678 774.427 555.965C774.427 556.252 774.66 556.485 774.948 556.485Z" fill="black"/>
<path opacity="0.8" d="M768.557 556.779C768.844 556.779 769.077 556.546 769.077 556.259C769.077 555.971 768.844 555.738 768.557 555.738C768.27 555.738 768.037 555.971 768.037 556.259C768.037 556.546 768.27 556.779 768.557 556.779Z" fill="black"/>
<path opacity="0.8" d="M759.384 555.518C759.672 555.518 759.905 555.285 759.905 554.998C759.905 554.71 759.672 554.477 759.384 554.477C759.097 554.477 758.864 554.71 758.864 554.998C758.864 555.285 759.097 555.518 759.384 555.518Z" fill="black"/>
<path opacity="0.8" d="M762.423 556.259C762.711 556.259 762.944 556.026 762.944 555.738C762.944 555.451 762.711 555.218 762.423 555.218C762.136 555.218 761.903 555.451 761.903 555.738C761.903 556.026 762.136 556.259 762.423 556.259Z" fill="black"/>
<path opacity="0.8" d="M753.707 554.477C753.994 554.477 754.227 554.244 754.227 553.957C754.227 553.67 753.994 553.437 753.707 553.437C753.419 553.437 753.186 553.67 753.186 553.957C753.186 554.244 753.419 554.477 753.707 554.477Z" fill="black"/>
<path opacity="0.8" d="M756.441 554.998C756.729 554.998 756.962 554.765 756.962 554.477C756.962 554.19 756.729 553.957 756.441 553.957C756.154 553.957 755.921 554.19 755.921 554.477C755.921 554.765 756.154 554.998 756.441 554.998Z" fill="black"/>
<path opacity="0.8" d="M750.71 553.437C750.998 553.437 751.231 553.204 751.231 552.916C751.231 552.629 750.998 552.396 750.71 552.396C750.423 552.396 750.19 552.629 750.19 552.916C750.19 553.204 750.423 553.437 750.71 553.437Z" fill="black"/>
<path opacity="0.8" d="M783.982 555.218C784.27 555.218 784.503 554.985 784.503 554.697C784.503 554.41 784.27 554.177 783.982 554.177C783.695 554.177 783.462 554.41 783.462 554.697C783.462 554.985 783.695 555.218 783.982 555.218Z" fill="black"/>
<path opacity="0.8" d="M777.944 556.259C778.231 556.259 778.464 556.026 778.464 555.738C778.464 555.451 778.231 555.218 777.944 555.218C777.656 555.218 777.423 555.451 777.423 555.738C777.423 556.026 777.656 556.259 777.944 556.259Z" fill="black"/>
<path opacity="0.8" d="M771.391 556.779C771.679 556.779 771.912 556.546 771.912 556.259C771.912 555.971 771.679 555.738 771.391 555.738C771.104 555.738 770.871 555.971 770.871 556.259C770.871 556.546 771.104 556.779 771.391 556.779Z" fill="black"/>
<path opacity="0.8" d="M765.43 556.779C765.718 556.779 765.951 556.546 765.951 556.259C765.951 555.971 765.718 555.738 765.43 555.738C765.143 555.738 764.91 555.971 764.91 556.259C764.91 556.546 765.143 556.779 765.43 556.779Z" fill="black"/>
</g>
<g opacity="0.8">
<path opacity="0.8" d="M792.877 555.259C793.164 555.259 793.398 555.026 793.398 554.738C793.398 554.451 793.164 554.218 792.877 554.218C792.59 554.218 792.357 554.451 792.357 554.738C792.357 555.026 792.59 555.259 792.877 555.259Z" fill="black"/>
<path opacity="0.8" d="M790.235 555.997C790.522 555.997 790.755 555.764 790.755 555.477C790.755 555.19 790.522 554.957 790.235 554.957C789.948 554.957 789.715 555.19 789.715 555.477C789.715 555.764 789.948 555.997 790.235 555.997Z" fill="black"/>
<path opacity="0.8" d="M786.971 557.038C787.258 557.038 787.491 556.805 787.491 556.518C787.491 556.231 787.258 555.997 786.971 555.997C786.683 555.997 786.45 556.231 786.45 556.518C786.45 556.805 786.683 557.038 786.971 557.038Z" fill="black"/>
<path opacity="0.8" d="M781.118 558.299C781.405 558.299 781.638 558.066 781.638 557.779C781.638 557.491 781.405 557.258 781.118 557.258C780.831 557.258 780.598 557.491 780.598 557.779C780.598 558.066 780.831 558.299 781.118 558.299Z" fill="black"/>
<path opacity="0.8" d="M774.948 559.046C775.235 559.046 775.468 558.813 775.468 558.526C775.468 558.239 775.235 558.005 774.948 558.005C774.66 558.005 774.427 558.239 774.427 558.526C774.427 558.813 774.66 559.046 774.948 559.046Z" fill="black"/>
<path opacity="0.8" d="M768.557 559.34C768.844 559.34 769.077 559.107 769.077 558.82C769.077 558.532 768.844 558.299 768.557 558.299C768.27 558.299 768.037 558.532 768.037 558.82C768.037 559.107 768.27 559.34 768.557 559.34Z" fill="black"/>
<path opacity="0.8" d="M759.384 558.079C759.672 558.079 759.905 557.846 759.905 557.559C759.905 557.271 759.672 557.038 759.384 557.038C759.097 557.038 758.864 557.271 758.864 557.559C758.864 557.846 759.097 558.079 759.384 558.079Z" fill="black"/>
<path opacity="0.8" d="M762.423 558.82C762.711 558.82 762.944 558.587 762.944 558.299C762.944 558.012 762.711 557.779 762.423 557.779C762.136 557.779 761.903 558.012 761.903 558.299C761.903 558.587 762.136 558.82 762.423 558.82Z" fill="black"/>
<path opacity="0.8" d="M753.707 557.038C753.994 557.038 754.227 556.805 754.227 556.518C754.227 556.231 753.994 555.997 753.707 555.997C753.419 555.997 753.186 556.231 753.186 556.518C753.186 556.805 753.419 557.038 753.707 557.038Z" fill="black"/>
<path opacity="0.8" d="M756.441 557.559C756.729 557.559 756.962 557.326 756.962 557.038C756.962 556.751 756.729 556.518 756.441 556.518C756.154 556.518 755.921 556.751 755.921 557.038C755.921 557.326 756.154 557.559 756.441 557.559Z" fill="black"/>
<path opacity="0.8" d="M750.71 555.997C750.998 555.997 751.231 555.764 751.231 555.477C751.231 555.19 750.998 554.957 750.71 554.957C750.423 554.957 750.19 555.19 750.19 555.477C750.19 555.764 750.423 555.997 750.71 555.997Z" fill="black"/>
<path opacity="0.8" d="M783.982 557.779C784.27 557.779 784.503 557.546 784.503 557.258C784.503 556.971 784.27 556.738 783.982 556.738C783.695 556.738 783.462 556.971 783.462 557.258C783.462 557.546 783.695 557.779 783.982 557.779Z" fill="black"/>
<path opacity="0.8" d="M777.944 558.82C778.231 558.82 778.464 558.587 778.464 558.299C778.464 558.012 778.231 557.779 777.944 557.779C777.656 557.779 777.423 558.012 777.423 558.299C777.423 558.587 777.656 558.82 777.944 558.82Z" fill="black"/>
<path opacity="0.8" d="M771.391 559.34C771.679 559.34 771.912 559.107 771.912 558.82C771.912 558.532 771.679 558.299 771.391 558.299C771.104 558.299 770.871 558.532 770.871 558.82C770.871 559.107 771.104 559.34 771.391 559.34Z" fill="black"/>
<path opacity="0.8" d="M765.43 559.34C765.718 559.34 765.951 559.107 765.951 558.82C765.951 558.532 765.718 558.299 765.43 558.299C765.143 558.299 764.91 558.532 764.91 558.82C764.91 559.107 765.143 559.34 765.43 559.34Z" fill="black"/>
</g>
<g opacity="0.8">
<path opacity="0.8" d="M792.877 557.82C793.164 557.82 793.398 557.587 793.398 557.299C793.398 557.012 793.164 556.779 792.877 556.779C792.59 556.779 792.357 557.012 792.357 557.299C792.357 557.587 792.59 557.82 792.877 557.82Z" fill="black"/>
<path opacity="0.8" d="M790.235 558.559C790.522 558.559 790.755 558.326 790.755 558.038C790.755 557.751 790.522 557.518 790.235 557.518C789.948 557.518 789.715 557.751 789.715 558.038C789.715 558.326 789.948 558.559 790.235 558.559Z" fill="black"/>
<path opacity="0.8" d="M786.971 559.599C787.258 559.599 787.491 559.366 787.491 559.079C787.491 558.791 787.258 558.559 786.971 558.559C786.683 558.559 786.45 558.791 786.45 559.079C786.45 559.366 786.683 559.599 786.971 559.599Z" fill="black"/>
<path opacity="0.8" d="M781.118 560.86C781.405 560.86 781.638 560.627 781.638 560.34C781.638 560.052 781.405 559.819 781.118 559.819C780.831 559.819 780.598 560.052 780.598 560.34C780.598 560.627 780.831 560.86 781.118 560.86Z" fill="black"/>
<path opacity="0.8" d="M774.948 561.607C775.235 561.607 775.468 561.374 775.468 561.087C775.468 560.8 775.235 560.567 774.948 560.567C774.66 560.567 774.427 560.8 774.427 561.087C774.427 561.374 774.66 561.607 774.948 561.607Z" fill="black"/>
<path opacity="0.8" d="M768.557 561.901C768.844 561.901 769.077 561.668 769.077 561.381C769.077 561.093 768.844 560.86 768.557 560.86C768.27 560.86 768.037 561.093 768.037 561.381C768.037 561.668 768.27 561.901 768.557 561.901Z" fill="black"/>
<path opacity="0.8" d="M759.384 560.64C759.672 560.64 759.905 560.407 759.905 560.12C759.905 559.832 759.672 559.599 759.384 559.599C759.097 559.599 758.864 559.832 758.864 560.12C758.864 560.407 759.097 560.64 759.384 560.64Z" fill="black"/>
<path opacity="0.8" d="M762.423 561.381C762.711 561.381 762.944 561.148 762.944 560.86C762.944 560.573 762.711 560.34 762.423 560.34C762.136 560.34 761.903 560.573 761.903 560.86C761.903 561.148 762.136 561.381 762.423 561.381Z" fill="black"/>
<path opacity="0.8" d="M753.707 559.599C753.994 559.599 754.227 559.366 754.227 559.079C754.227 558.791 753.994 558.559 753.707 558.559C753.419 558.559 753.186 558.791 753.186 559.079C753.186 559.366 753.419 559.599 753.707 559.599Z" fill="black"/>
<path opacity="0.8" d="M756.441 560.12C756.729 560.12 756.962 559.887 756.962 559.599C756.962 559.312 756.729 559.079 756.441 559.079C756.154 559.079 755.921 559.312 755.921 559.599C755.921 559.887 756.154 560.12 756.441 560.12Z" fill="black"/>
<path opacity="0.8" d="M750.71 558.559C750.998 558.559 751.231 558.326 751.231 558.038C751.231 557.751 750.998 557.518 750.71 557.518C750.423 557.518 750.19 557.751 750.19 558.038C750.19 558.326 750.423 558.559 750.71 558.559Z" fill="black"/>
<path opacity="0.8" d="M783.982 560.34C784.27 560.34 784.503 560.107 784.503 559.819C784.503 559.532 784.27 559.299 783.982 559.299C783.695 559.299 783.462 559.532 783.462 559.819C783.462 560.107 783.695 560.34 783.982 560.34Z" fill="black"/>
<path opacity="0.8" d="M777.944 561.381C778.231 561.381 778.464 561.148 778.464 560.86C778.464 560.573 778.231 560.34 777.944 560.34C777.656 560.34 777.423 560.573 777.423 560.86C777.423 561.148 777.656 561.381 777.944 561.381Z" fill="black"/>
<path opacity="0.8" d="M771.391 561.901C771.679 561.901 771.912 561.668 771.912 561.381C771.912 561.093 771.679 560.86 771.391 560.86C771.104 560.86 770.871 561.093 770.871 561.381C770.871 561.668 771.104 561.901 771.391 561.901Z" fill="black"/>
<path opacity="0.8" d="M765.43 561.901C765.718 561.901 765.951 561.668 765.951 561.381C765.951 561.093 765.718 560.86 765.43 560.86C765.143 560.86 764.91 561.093 764.91 561.381C764.91 561.668 765.143 561.901 765.43 561.901Z" fill="black"/>
</g>
<g opacity="0.8">
<path opacity="0.8" d="M792.877 560.381C793.164 560.381 793.398 560.148 793.398 559.86C793.398 559.573 793.164 559.34 792.877 559.34C792.59 559.34 792.357 559.573 792.357 559.86C792.357 560.148 792.59 560.381 792.877 560.381Z" fill="black"/>
<path opacity="0.8" d="M790.235 561.12C790.522 561.12 790.755 560.887 790.755 560.599C790.755 560.312 790.522 560.079 790.235 560.079C789.948 560.079 789.715 560.312 789.715 560.599C789.715 560.887 789.948 561.12 790.235 561.12Z" fill="black"/>
<path opacity="0.8" d="M786.971 562.16C787.258 562.16 787.491 561.927 787.491 561.64C787.491 561.353 787.258 561.12 786.971 561.12C786.683 561.12 786.45 561.353 786.45 561.64C786.45 561.927 786.683 562.16 786.971 562.16Z" fill="black"/>
<path opacity="0.8" d="M781.118 563.421C781.405 563.421 781.638 563.188 781.638 562.901C781.638 562.613 781.405 562.38 781.118 562.38C780.831 562.38 780.598 562.613 780.598 562.901C780.598 563.188 780.831 563.421 781.118 563.421Z" fill="black"/>
<path opacity="0.8" d="M774.948 564.168C775.235 564.168 775.468 563.935 775.468 563.648C775.468 563.361 775.235 563.128 774.948 563.128C774.66 563.128 774.427 563.361 774.427 563.648C774.427 563.935 774.66 564.168 774.948 564.168Z" fill="black"/>
<path opacity="0.8" d="M768.557 564.462C768.844 564.462 769.077 564.229 769.077 563.942C769.077 563.654 768.844 563.421 768.557 563.421C768.27 563.421 768.037 563.654 768.037 563.942C768.037 564.229 768.27 564.462 768.557 564.462Z" fill="black"/>
<path opacity="0.8" d="M759.384 563.201C759.672 563.201 759.905 562.968 759.905 562.681C759.905 562.393 759.672 562.16 759.384 562.16C759.097 562.16 758.864 562.393 758.864 562.681C758.864 562.968 759.097 563.201 759.384 563.201Z" fill="black"/>
<path opacity="0.8" d="M762.423 563.942C762.711 563.942 762.944 563.709 762.944 563.421C762.944 563.134 762.711 562.901 762.423 562.901C762.136 562.901 761.903 563.134 761.903 563.421C761.903 563.709 762.136 563.942 762.423 563.942Z" fill="black"/>
<path opacity="0.8" d="M753.707 562.16C753.994 562.16 754.227 561.927 754.227 561.64C754.227 561.353 753.994 561.12 753.707 561.12C753.419 561.12 753.186 561.353 753.186 561.64C753.186 561.927 753.419 562.16 753.707 562.16Z" fill="black"/>
<path opacity="0.8" d="M756.441 562.681C756.729 562.681 756.962 562.448 756.962 562.16C756.962 561.873 756.729 561.64 756.441 561.64C756.154 561.64 755.921 561.873 755.921 562.16C755.921 562.448 756.154 562.681 756.441 562.681Z" fill="black"/>
<path opacity="0.8" d="M750.71 561.12C750.998 561.12 751.231 560.887 751.231 560.599C751.231 560.312 750.998 560.079 750.71 560.079C750.423 560.079 750.19 560.312 750.19 560.599C750.19 560.887 750.423 561.12 750.71 561.12Z" fill="black"/>
<path opacity="0.8" d="M783.982 562.901C784.27 562.901 784.503 562.668 784.503 562.38C784.503 562.093 784.27 561.86 783.982 561.86C783.695 561.86 783.462 562.093 783.462 562.38C783.462 562.668 783.695 562.901 783.982 562.901Z" fill="black"/>
<path opacity="0.8" d="M777.944 563.942C778.231 563.942 778.464 563.709 778.464 563.421C778.464 563.134 778.231 562.901 777.944 562.901C777.656 562.901 777.423 563.134 777.423 563.421C777.423 563.709 777.656 563.942 777.944 563.942Z" fill="black"/>
<path opacity="0.8" d="M771.391 564.462C771.679 564.462 771.912 564.229 771.912 563.942C771.912 563.654 771.679 563.421 771.391 563.421C771.104 563.421 770.871 563.654 770.871 563.942C770.871 564.229 771.104 564.462 771.391 564.462Z" fill="black"/>
<path opacity="0.8" d="M765.43 564.462C765.718 564.462 765.951 564.229 765.951 563.942C765.951 563.654 765.718 563.421 765.43 563.421C765.143 563.421 764.91 563.654 764.91 563.942C764.91 564.229 765.143 564.462 765.43 564.462Z" fill="black"/>
</g>
<g opacity="0.8">
<path opacity="0.8" d="M792.877 562.942C793.164 562.942 793.398 562.709 793.398 562.422C793.398 562.134 793.164 561.901 792.877 561.901C792.59 561.901 792.357 562.134 792.357 562.422C792.357 562.709 792.59 562.942 792.877 562.942Z" fill="black"/>
<path opacity="0.8" d="M790.235 563.681C790.522 563.681 790.755 563.448 790.755 563.16C790.755 562.873 790.522 562.64 790.235 562.64C789.948 562.64 789.715 562.873 789.715 563.16C789.715 563.448 789.948 563.681 790.235 563.681Z" fill="black"/>
<path opacity="0.8" d="M786.971 564.721C787.258 564.721 787.491 564.488 787.491 564.201C787.491 563.914 787.258 563.681 786.971 563.681C786.683 563.681 786.45 563.914 786.45 564.201C786.45 564.488 786.683 564.721 786.971 564.721Z" fill="black"/>
<path opacity="0.8" d="M781.118 565.982C781.405 565.982 781.638 565.749 781.638 565.462C781.638 565.174 781.405 564.942 781.118 564.942C780.831 564.942 780.598 565.174 780.598 565.462C780.598 565.749 780.831 565.982 781.118 565.982Z" fill="black"/>
<path opacity="0.8" d="M774.948 566.729C775.235 566.729 775.468 566.496 775.468 566.209C775.468 565.922 775.235 565.689 774.948 565.689C774.66 565.689 774.427 565.922 774.427 566.209C774.427 566.496 774.66 566.729 774.948 566.729Z" fill="black"/>
<path opacity="0.8" d="M768.557 567.023C768.844 567.023 769.077 566.79 769.077 566.503C769.077 566.215 768.844 565.982 768.557 565.982C768.27 565.982 768.037 566.215 768.037 566.503C768.037 566.79 768.27 567.023 768.557 567.023Z" fill="black"/>
<path opacity="0.8" d="M759.384 565.762C759.672 565.762 759.905 565.529 759.905 565.242C759.905 564.954 759.672 564.721 759.384 564.721C759.097 564.721 758.864 564.954 758.864 565.242C758.864 565.529 759.097 565.762 759.384 565.762Z" fill="black"/>
<path opacity="0.8" d="M762.423 566.503C762.711 566.503 762.944 566.27 762.944 565.982C762.944 565.695 762.711 565.462 762.423 565.462C762.136 565.462 761.903 565.695 761.903 565.982C761.903 566.27 762.136 566.503 762.423 566.503Z" fill="black"/>
<path opacity="0.8" d="M753.707 564.721C753.994 564.721 754.227 564.488 754.227 564.201C754.227 563.914 753.994 563.681 753.707 563.681C753.419 563.681 753.186 563.914 753.186 564.201C753.186 564.488 753.419 564.721 753.707 564.721Z" fill="black"/>
<path opacity="0.8" d="M756.441 565.242C756.729 565.242 756.962 565.009 756.962 564.721C756.962 564.434 756.729 564.201 756.441 564.201C756.154 564.201 755.921 564.434 755.921 564.721C755.921 565.009 756.154 565.242 756.441 565.242Z" fill="black"/>
<path opacity="0.8" d="M750.71 563.681C750.998 563.681 751.231 563.448 751.231 563.16C751.231 562.873 750.998 562.64 750.71 562.64C750.423 562.64 750.19 562.873 750.19 563.16C750.19 563.448 750.423 563.681 750.71 563.681Z" fill="black"/>
<path opacity="0.8" d="M783.982 565.462C784.27 565.462 784.503 565.229 784.503 564.942C784.503 564.654 784.27 564.421 783.982 564.421C783.695 564.421 783.462 564.654 783.462 564.942C783.462 565.229 783.695 565.462 783.982 565.462Z" fill="black"/>
<path opacity="0.8" d="M777.944 566.503C778.231 566.503 778.464 566.27 778.464 565.982C778.464 565.695 778.231 565.462 777.944 565.462C777.656 565.462 777.423 565.695 777.423 565.982C777.423 566.27 777.656 566.503 777.944 566.503Z" fill="black"/>
<path opacity="0.8" d="M771.391 567.023C771.679 567.023 771.912 566.79 771.912 566.503C771.912 566.215 771.679 565.982 771.391 565.982C771.104 565.982 770.871 566.215 770.871 566.503C770.871 566.79 771.104 567.023 771.391 567.023Z" fill="black"/>
<path opacity="0.8" d="M765.43 567.023C765.718 567.023 765.951 566.79 765.951 566.503C765.951 566.215 765.718 565.982 765.43 565.982C765.143 565.982 764.91 566.215 764.91 566.503C764.91 566.79 765.143 567.023 765.43 567.023Z" fill="black"/>
</g>
<g opacity="0.8">
<path opacity="0.8" d="M792.877 565.503C793.164 565.503 793.398 565.27 793.398 564.983C793.398 564.695 793.164 564.462 792.877 564.462C792.59 564.462 792.357 564.695 792.357 564.983C792.357 565.27 792.59 565.503 792.877 565.503Z" fill="black"/>
<path opacity="0.8" d="M790.235 566.242C790.522 566.242 790.755 566.009 790.755 565.721C790.755 565.434 790.522 565.201 790.235 565.201C789.948 565.201 789.715 565.434 789.715 565.721C789.715 566.009 789.948 566.242 790.235 566.242Z" fill="black"/>
<path opacity="0.8" d="M786.971 567.282C787.258 567.282 787.491 567.049 787.491 566.762C787.491 566.475 787.258 566.242 786.971 566.242C786.683 566.242 786.45 566.475 786.45 566.762C786.45 567.049 786.683 567.282 786.971 567.282Z" fill="black"/>
<path opacity="0.8" d="M781.118 568.543C781.405 568.543 781.638 568.31 781.638 568.023C781.638 567.736 781.405 567.503 781.118 567.503C780.831 567.503 780.598 567.736 780.598 568.023C780.598 568.31 780.831 568.543 781.118 568.543Z" fill="black"/>
<path opacity="0.8" d="M774.948 569.29C775.235 569.29 775.468 569.058 775.468 568.77C775.468 568.483 775.235 568.25 774.948 568.25C774.66 568.25 774.427 568.483 774.427 568.77C774.427 569.058 774.66 569.29 774.948 569.29Z" fill="black"/>
<path opacity="0.8" d="M768.557 569.584C768.844 569.584 769.077 569.351 769.077 569.064C769.077 568.776 768.844 568.543 768.557 568.543C768.27 568.543 768.037 568.776 768.037 569.064C768.037 569.351 768.27 569.584 768.557 569.584Z" fill="black"/>
<path opacity="0.8" d="M759.384 568.323C759.672 568.323 759.905 568.09 759.905 567.803C759.905 567.515 759.672 567.282 759.384 567.282C759.097 567.282 758.864 567.515 758.864 567.803C758.864 568.09 759.097 568.323 759.384 568.323Z" fill="black"/>
<path opacity="0.8" d="M762.423 569.064C762.711 569.064 762.944 568.831 762.944 568.543C762.944 568.256 762.711 568.023 762.423 568.023C762.136 568.023 761.903 568.256 761.903 568.543C761.903 568.831 762.136 569.064 762.423 569.064Z" fill="black"/>
<path opacity="0.8" d="M753.707 567.282C753.994 567.282 754.227 567.049 754.227 566.762C754.227 566.475 753.994 566.242 753.707 566.242C753.419 566.242 753.186 566.475 753.186 566.762C753.186 567.049 753.419 567.282 753.707 567.282Z" fill="black"/>
<path opacity="0.8" d="M756.441 567.803C756.729 567.803 756.962 567.57 756.962 567.282C756.962 566.995 756.729 566.762 756.441 566.762C756.154 566.762 755.921 566.995 755.921 567.282C755.921 567.57 756.154 567.803 756.441 567.803Z" fill="black"/>
<path opacity="0.8" d="M750.71 566.242C750.998 566.242 751.231 566.009 751.231 565.721C751.231 565.434 750.998 565.201 750.71 565.201C750.423 565.201 750.19 565.434 750.19 565.721C750.19 566.009 750.423 566.242 750.71 566.242Z" fill="black"/>
<path opacity="0.8" d="M783.982 568.023C784.27 568.023 784.503 567.79 784.503 567.503C784.503 567.215 784.27 566.982 783.982 566.982C783.695 566.982 783.462 567.215 783.462 567.503C783.462 567.79 783.695 568.023 783.982 568.023Z" fill="black"/>
<path opacity="0.8" d="M777.944 569.064C778.231 569.064 778.464 568.831 778.464 568.543C778.464 568.256 778.231 568.023 777.944 568.023C777.656 568.023 777.423 568.256 777.423 568.543C777.423 568.831 777.656 569.064 777.944 569.064Z" fill="black"/>
<path opacity="0.8" d="M771.391 569.584C771.679 569.584 771.912 569.351 771.912 569.064C771.912 568.776 771.679 568.543 771.391 568.543C771.104 568.543 770.871 568.776 770.871 569.064C770.871 569.351 771.104 569.584 771.391 569.584Z" fill="black"/>
<path opacity="0.8" d="M765.43 569.584C765.718 569.584 765.951 569.351 765.951 569.064C765.951 568.776 765.718 568.543 765.43 568.543C765.143 568.543 764.91 568.776 764.91 569.064C764.91 569.351 765.143 569.584 765.43 569.584Z" fill="black"/>
</g>
<g opacity="0.8">
<path opacity="0.8" d="M792.877 568.064C793.164 568.064 793.398 567.831 793.398 567.544C793.398 567.256 793.164 567.023 792.877 567.023C792.59 567.023 792.357 567.256 792.357 567.544C792.357 567.831 792.59 568.064 792.877 568.064Z" fill="black"/>
<path opacity="0.8" d="M790.235 568.803C790.522 568.803 790.755 568.57 790.755 568.282C790.755 567.995 790.522 567.762 790.235 567.762C789.948 567.762 789.715 567.995 789.715 568.282C789.715 568.57 789.948 568.803 790.235 568.803Z" fill="black"/>
<path opacity="0.8" d="M786.971 569.844C787.258 569.844 787.491 569.61 787.491 569.323C787.491 569.036 787.258 568.803 786.971 568.803C786.683 568.803 786.45 569.036 786.45 569.323C786.45 569.61 786.683 569.844 786.971 569.844Z" fill="black"/>
<path opacity="0.8" d="M781.118 571.104C781.405 571.104 781.638 570.871 781.638 570.584C781.638 570.297 781.405 570.064 781.118 570.064C780.831 570.064 780.598 570.297 780.598 570.584C780.598 570.871 780.831 571.104 781.118 571.104Z" fill="black"/>
<path opacity="0.8" d="M774.948 571.852C775.235 571.852 775.468 571.618 775.468 571.331C775.468 571.044 775.235 570.811 774.948 570.811C774.66 570.811 774.427 571.044 774.427 571.331C774.427 571.618 774.66 571.852 774.948 571.852Z" fill="black"/>
<path opacity="0.8" d="M768.557 572.145C768.844 572.145 769.077 571.912 769.077 571.625C769.077 571.337 768.844 571.104 768.557 571.104C768.27 571.104 768.037 571.337 768.037 571.625C768.037 571.912 768.27 572.145 768.557 572.145Z" fill="black"/>
<path opacity="0.8" d="M759.384 570.884C759.672 570.884 759.905 570.651 759.905 570.364C759.905 570.076 759.672 569.844 759.384 569.844C759.097 569.844 758.864 570.076 758.864 570.364C758.864 570.651 759.097 570.884 759.384 570.884Z" fill="black"/>
<path opacity="0.8" d="M762.423 571.625C762.711 571.625 762.944 571.392 762.944 571.104C762.944 570.817 762.711 570.584 762.423 570.584C762.136 570.584 761.903 570.817 761.903 571.104C761.903 571.392 762.136 571.625 762.423 571.625Z" fill="black"/>
<path opacity="0.8" d="M753.707 569.844C753.994 569.844 754.227 569.61 754.227 569.323C754.227 569.036 753.994 568.803 753.707 568.803C753.419 568.803 753.186 569.036 753.186 569.323C753.186 569.61 753.419 569.844 753.707 569.844Z" fill="black"/>
<path opacity="0.8" d="M756.441 570.364C756.729 570.364 756.962 570.131 756.962 569.844C756.962 569.556 756.729 569.323 756.441 569.323C756.154 569.323 755.921 569.556 755.921 569.844C755.921 570.131 756.154 570.364 756.441 570.364Z" fill="black"/>
<path opacity="0.8" d="M750.71 568.803C750.998 568.803 751.231 568.57 751.231 568.282C751.231 567.995 750.998 567.762 750.71 567.762C750.423 567.762 750.19 567.995 750.19 568.282C750.19 568.57 750.423 568.803 750.71 568.803Z" fill="black"/>
<path opacity="0.8" d="M783.982 570.584C784.27 570.584 784.503 570.351 784.503 570.064C784.503 569.776 784.27 569.543 783.982 569.543C783.695 569.543 783.462 569.776 783.462 570.064C783.462 570.351 783.695 570.584 783.982 570.584Z" fill="black"/>
<path opacity="0.8" d="M777.944 571.625C778.231 571.625 778.464 571.392 778.464 571.104C778.464 570.817 778.231 570.584 777.944 570.584C777.656 570.584 777.423 570.817 777.423 571.104C777.423 571.392 777.656 571.625 777.944 571.625Z" fill="black"/>
<path opacity="0.8" d="M771.391 572.145C771.679 572.145 771.912 571.912 771.912 571.625C771.912 571.337 771.679 571.104 771.391 571.104C771.104 571.104 770.871 571.337 770.871 571.625C770.871 571.912 771.104 572.145 771.391 572.145Z" fill="black"/>
<path opacity="0.8" d="M765.43 572.145C765.718 572.145 765.951 571.912 765.951 571.625C765.951 571.337 765.718 571.104 765.43 571.104C765.143 571.104 764.91 571.337 764.91 571.625C764.91 571.912 765.143 572.145 765.43 572.145Z" fill="black"/>
</g>
<g opacity="0.8">
<path opacity="0.8" d="M792.877 570.625C793.164 570.625 793.398 570.392 793.398 570.105C793.398 569.817 793.164 569.584 792.877 569.584C792.59 569.584 792.357 569.817 792.357 570.105C792.357 570.392 792.59 570.625 792.877 570.625Z" fill="black"/>
<path opacity="0.8" d="M790.235 571.364C790.522 571.364 790.755 571.131 790.755 570.843C790.755 570.556 790.522 570.323 790.235 570.323C789.948 570.323 789.715 570.556 789.715 570.843C789.715 571.131 789.948 571.364 790.235 571.364Z" fill="black"/>
<path opacity="0.8" d="M786.971 572.404C787.258 572.404 787.491 572.172 787.491 571.884C787.491 571.597 787.258 571.364 786.971 571.364C786.683 571.364 786.45 571.597 786.45 571.884C786.45 572.172 786.683 572.404 786.971 572.404Z" fill="black"/>
<path opacity="0.8" d="M781.118 573.665C781.405 573.665 781.638 573.432 781.638 573.145C781.638 572.858 781.405 572.625 781.118 572.625C780.831 572.625 780.598 572.858 780.598 573.145C780.598 573.432 780.831 573.665 781.118 573.665Z" fill="black"/>
<path opacity="0.8" d="M774.948 574.413C775.235 574.413 775.468 574.18 775.468 573.892C775.468 573.605 775.235 573.372 774.948 573.372C774.66 573.372 774.427 573.605 774.427 573.892C774.427 574.18 774.66 574.413 774.948 574.413Z" fill="black"/>
<path opacity="0.8" d="M768.557 574.706C768.844 574.706 769.077 574.473 769.077 574.186C769.077 573.898 768.844 573.665 768.557 573.665C768.27 573.665 768.037 573.898 768.037 574.186C768.037 574.473 768.27 574.706 768.557 574.706Z" fill="black"/>
<path opacity="0.8" d="M759.384 573.445C759.672 573.445 759.905 573.212 759.905 572.925C759.905 572.638 759.672 572.404 759.384 572.404C759.097 572.404 758.864 572.638 758.864 572.925C758.864 573.212 759.097 573.445 759.384 573.445Z" fill="black"/>
<path opacity="0.8" d="M762.423 574.186C762.711 574.186 762.944 573.953 762.944 573.665C762.944 573.378 762.711 573.145 762.423 573.145C762.136 573.145 761.903 573.378 761.903 573.665C761.903 573.953 762.136 574.186 762.423 574.186Z" fill="black"/>
<path opacity="0.8" d="M753.707 572.404C753.994 572.404 754.227 572.172 754.227 571.884C754.227 571.597 753.994 571.364 753.707 571.364C753.419 571.364 753.186 571.597 753.186 571.884C753.186 572.172 753.419 572.404 753.707 572.404Z" fill="black"/>
<path opacity="0.8" d="M756.441 572.925C756.729 572.925 756.962 572.692 756.962 572.404C756.962 572.117 756.729 571.884 756.441 571.884C756.154 571.884 755.921 572.117 755.921 572.404C755.921 572.692 756.154 572.925 756.441 572.925Z" fill="black"/>
<path opacity="0.8" d="M750.71 571.364C750.998 571.364 751.231 571.131 751.231 570.843C751.231 570.556 750.998 570.323 750.71 570.323C750.423 570.323 750.19 570.556 750.19 570.843C750.19 571.131 750.423 571.364 750.71 571.364Z" fill="black"/>
<path opacity="0.8" d="M783.982 573.145C784.27 573.145 784.503 572.912 784.503 572.625C784.503 572.337 784.27 572.104 783.982 572.104C783.695 572.104 783.462 572.337 783.462 572.625C783.462 572.912 783.695 573.145 783.982 573.145Z" fill="black"/>
<path opacity="0.8" d="M777.944 574.186C778.231 574.186 778.464 573.953 778.464 573.665C778.464 573.378 778.231 573.145 777.944 573.145C777.656 573.145 777.423 573.378 777.423 573.665C777.423 573.953 777.656 574.186 777.944 574.186Z" fill="black"/>
<path opacity="0.8" d="M771.391 574.706C771.679 574.706 771.912 574.473 771.912 574.186C771.912 573.898 771.679 573.665 771.391 573.665C771.104 573.665 770.871 573.898 770.871 574.186C770.871 574.473 771.104 574.706 771.391 574.706Z" fill="black"/>
<path opacity="0.8" d="M765.43 574.706C765.718 574.706 765.951 574.473 765.951 574.186C765.951 573.898 765.718 573.665 765.43 573.665C765.143 573.665 764.91 573.898 764.91 574.186C764.91 574.473 765.143 574.706 765.43 574.706Z" fill="black"/>
</g>
<g opacity="0.8">
<path opacity="0.8" d="M792.877 573.186C793.164 573.186 793.398 572.953 793.398 572.666C793.398 572.378 793.164 572.145 792.877 572.145C792.59 572.145 792.357 572.378 792.357 572.666C792.357 572.953 792.59 573.186 792.877 573.186Z" fill="black"/>
<path opacity="0.8" d="M790.235 573.925C790.522 573.925 790.755 573.692 790.755 573.404C790.755 573.117 790.522 572.884 790.235 572.884C789.948 572.884 789.715 573.117 789.715 573.404C789.715 573.692 789.948 573.925 790.235 573.925Z" fill="black"/>
<path opacity="0.8" d="M786.971 574.966C787.258 574.966 787.491 574.733 787.491 574.445C787.491 574.158 787.258 573.925 786.971 573.925C786.683 573.925 786.45 574.158 786.45 574.445C786.45 574.733 786.683 574.966 786.971 574.966Z" fill="black"/>
<path opacity="0.8" d="M781.118 576.227C781.405 576.227 781.638 575.993 781.638 575.706C781.638 575.419 781.405 575.186 781.118 575.186C780.831 575.186 780.598 575.419 780.598 575.706C780.598 575.993 780.831 576.227 781.118 576.227Z" fill="black"/>
<path opacity="0.8" d="M774.948 576.974C775.235 576.974 775.468 576.741 775.468 576.453C775.468 576.166 775.235 575.933 774.948 575.933C774.66 575.933 774.427 576.166 774.427 576.453C774.427 576.741 774.66 576.974 774.948 576.974Z" fill="black"/>
<path opacity="0.8" d="M768.557 577.267C768.844 577.267 769.077 577.034 769.077 576.747C769.077 576.459 768.844 576.227 768.557 576.227C768.27 576.227 768.037 576.459 768.037 576.747C768.037 577.034 768.27 577.267 768.557 577.267Z" fill="black"/>
<path opacity="0.8" d="M759.384 576.006C759.672 576.006 759.905 575.773 759.905 575.486C759.905 575.199 759.672 574.966 759.384 574.966C759.097 574.966 758.864 575.199 758.864 575.486C758.864 575.773 759.097 576.006 759.384 576.006Z" fill="black"/>
<path opacity="0.8" d="M762.423 576.747C762.711 576.747 762.944 576.514 762.944 576.227C762.944 575.939 762.711 575.706 762.423 575.706C762.136 575.706 761.903 575.939 761.903 576.227C761.903 576.514 762.136 576.747 762.423 576.747Z" fill="black"/>
<path opacity="0.8" d="M753.707 574.966C753.994 574.966 754.227 574.733 754.227 574.445C754.227 574.158 753.994 573.925 753.707 573.925C753.419 573.925 753.186 574.158 753.186 574.445C753.186 574.733 753.419 574.966 753.707 574.966Z" fill="black"/>
<path opacity="0.8" d="M756.441 575.486C756.729 575.486 756.962 575.253 756.962 574.966C756.962 574.678 756.729 574.445 756.441 574.445C756.154 574.445 755.921 574.678 755.921 574.966C755.921 575.253 756.154 575.486 756.441 575.486Z" fill="black"/>
<path opacity="0.8" d="M750.71 573.925C750.998 573.925 751.231 573.692 751.231 573.404C751.231 573.117 750.998 572.884 750.71 572.884C750.423 572.884 750.19 573.117 750.19 573.404C750.19 573.692 750.423 573.925 750.71 573.925Z" fill="black"/>
<path opacity="0.8" d="M783.982 575.706C784.27 575.706 784.503 575.473 784.503 575.186C784.503 574.898 784.27 574.665 783.982 574.665C783.695 574.665 783.462 574.898 783.462 575.186C783.462 575.473 783.695 575.706 783.982 575.706Z" fill="black"/>
<path opacity="0.8" d="M777.944 576.747C778.231 576.747 778.464 576.514 778.464 576.227C778.464 575.939 778.231 575.706 777.944 575.706C777.656 575.706 777.423 575.939 777.423 576.227C777.423 576.514 777.656 576.747 777.944 576.747Z" fill="black"/>
<path opacity="0.8" d="M771.391 577.267C771.679 577.267 771.912 577.034 771.912 576.747C771.912 576.459 771.679 576.227 771.391 576.227C771.104 576.227 770.871 576.459 770.871 576.747C770.871 577.034 771.104 577.267 771.391 577.267Z" fill="black"/>
<path opacity="0.8" d="M765.43 577.267C765.718 577.267 765.951 577.034 765.951 576.747C765.951 576.459 765.718 576.227 765.43 576.227C765.143 576.227 764.91 576.459 764.91 576.747C764.91 577.034 765.143 577.267 765.43 577.267Z" fill="black"/>
</g>
<g opacity="0.8">
<path opacity="0.8" d="M792.877 575.747C793.164 575.747 793.398 575.514 793.398 575.227C793.398 574.939 793.164 574.706 792.877 574.706C792.59 574.706 792.357 574.939 792.357 575.227C792.357 575.514 792.59 575.747 792.877 575.747Z" fill="black"/>
<path opacity="0.8" d="M790.235 576.486C790.522 576.486 790.755 576.253 790.755 575.965C790.755 575.678 790.522 575.445 790.235 575.445C789.948 575.445 789.715 575.678 789.715 575.965C789.715 576.253 789.948 576.486 790.235 576.486Z" fill="black"/>
<path opacity="0.8" d="M786.971 577.527C787.258 577.527 787.491 577.294 787.491 577.006C787.491 576.719 787.258 576.486 786.971 576.486C786.683 576.486 786.45 576.719 786.45 577.006C786.45 577.294 786.683 577.527 786.971 577.527Z" fill="black"/>
<path opacity="0.8" d="M781.118 578.787C781.405 578.787 781.638 578.555 781.638 578.267C781.638 577.98 781.405 577.747 781.118 577.747C780.831 577.747 780.598 577.98 780.598 578.267C780.598 578.555 780.831 578.787 781.118 578.787Z" fill="black"/>
<path opacity="0.8" d="M774.948 579.535C775.235 579.535 775.468 579.302 775.468 579.014C775.468 578.727 775.235 578.494 774.948 578.494C774.66 578.494 774.427 578.727 774.427 579.014C774.427 579.302 774.66 579.535 774.948 579.535Z" fill="black"/>
<path opacity="0.8" d="M768.557 579.828C768.844 579.828 769.077 579.595 769.077 579.308C769.077 579.021 768.844 578.787 768.557 578.787C768.27 578.787 768.037 579.021 768.037 579.308C768.037 579.595 768.27 579.828 768.557 579.828Z" fill="black"/>
<path opacity="0.8" d="M759.384 578.567C759.672 578.567 759.905 578.334 759.905 578.047C759.905 577.76 759.672 577.527 759.384 577.527C759.097 577.527 758.864 577.76 758.864 578.047C758.864 578.334 759.097 578.567 759.384 578.567Z" fill="black"/>
<path opacity="0.8" d="M762.423 579.308C762.711 579.308 762.944 579.075 762.944 578.787C762.944 578.5 762.711 578.267 762.423 578.267C762.136 578.267 761.903 578.5 761.903 578.787C761.903 579.075 762.136 579.308 762.423 579.308Z" fill="black"/>
<path opacity="0.8" d="M753.707 577.527C753.994 577.527 754.227 577.294 754.227 577.006C754.227 576.719 753.994 576.486 753.707 576.486C753.419 576.486 753.186 576.719 753.186 577.006C753.186 577.294 753.419 577.527 753.707 577.527Z" fill="black"/>
<path opacity="0.8" d="M756.441 578.047C756.729 578.047 756.962 577.814 756.962 577.527C756.962 577.239 756.729 577.006 756.441 577.006C756.154 577.006 755.921 577.239 755.921 577.527C755.921 577.814 756.154 578.047 756.441 578.047Z" fill="black"/>
<path opacity="0.8" d="M750.71 576.486C750.998 576.486 751.231 576.253 751.231 575.965C751.231 575.678 750.998 575.445 750.71 575.445C750.423 575.445 750.19 575.678 750.19 575.965C750.19 576.253 750.423 576.486 750.71 576.486Z" fill="black"/>
<path opacity="0.8" d="M783.982 578.267C784.27 578.267 784.503 578.034 784.503 577.747C784.503 577.459 784.27 577.226 783.982 577.226C783.695 577.226 783.462 577.459 783.462 577.747C783.462 578.034 783.695 578.267 783.982 578.267Z" fill="black"/>
<path opacity="0.8" d="M777.944 579.308C778.231 579.308 778.464 579.075 778.464 578.787C778.464 578.5 778.231 578.267 777.944 578.267C777.656 578.267 777.423 578.5 777.423 578.787C777.423 579.075 777.656 579.308 777.944 579.308Z" fill="black"/>
<path opacity="0.8" d="M771.391 579.828C771.679 579.828 771.912 579.595 771.912 579.308C771.912 579.021 771.679 578.787 771.391 578.787C771.104 578.787 770.871 579.021 770.871 579.308C770.871 579.595 771.104 579.828 771.391 579.828Z" fill="black"/>
<path opacity="0.8" d="M765.43 579.828C765.718 579.828 765.951 579.595 765.951 579.308C765.951 579.021 765.718 578.787 765.43 578.787C765.143 578.787 764.91 579.021 764.91 579.308C764.91 579.595 765.143 579.828 765.43 579.828Z" fill="black"/>
</g>
<g opacity="0.8">
<path opacity="0.8" d="M792.877 578.308C793.164 578.308 793.398 578.075 793.398 577.788C793.398 577.5 793.164 577.267 792.877 577.267C792.59 577.267 792.357 577.5 792.357 577.788C792.357 578.075 792.59 578.308 792.877 578.308Z" fill="black"/>
<path opacity="0.8" d="M790.235 579.047C790.522 579.047 790.755 578.814 790.755 578.526C790.755 578.239 790.522 578.006 790.235 578.006C789.948 578.006 789.715 578.239 789.715 578.526C789.715 578.814 789.948 579.047 790.235 579.047Z" fill="black"/>
<path opacity="0.8" d="M786.971 580.088C787.258 580.088 787.491 579.855 787.491 579.567C787.491 579.28 787.258 579.047 786.971 579.047C786.683 579.047 786.45 579.28 786.45 579.567C786.45 579.855 786.683 580.088 786.971 580.088Z" fill="black"/>
<path opacity="0.8" d="M781.118 581.349C781.405 581.349 781.638 581.115 781.638 580.828C781.638 580.541 781.405 580.308 781.118 580.308C780.831 580.308 780.598 580.541 780.598 580.828C780.598 581.115 780.831 581.349 781.118 581.349Z" fill="black"/>
<path opacity="0.8" d="M774.948 582.096C775.235 582.096 775.468 581.863 775.468 581.575C775.468 581.288 775.235 581.055 774.948 581.055C774.66 581.055 774.427 581.288 774.427 581.575C774.427 581.863 774.66 582.096 774.948 582.096Z" fill="black"/>
<path opacity="0.8" d="M768.557 582.389C768.844 582.389 769.077 582.156 769.077 581.869C769.077 581.582 768.844 581.349 768.557 581.349C768.27 581.349 768.037 581.582 768.037 581.869C768.037 582.156 768.27 582.389 768.557 582.389Z" fill="black"/>
<path opacity="0.8" d="M759.384 581.128C759.672 581.128 759.905 580.895 759.905 580.608C759.905 580.321 759.672 580.088 759.384 580.088C759.097 580.088 758.864 580.321 758.864 580.608C758.864 580.895 759.097 581.128 759.384 581.128Z" fill="black"/>
<path opacity="0.8" d="M762.423 581.869C762.711 581.869 762.944 581.636 762.944 581.349C762.944 581.061 762.711 580.828 762.423 580.828C762.136 580.828 761.903 581.061 761.903 581.349C761.903 581.636 762.136 581.869 762.423 581.869Z" fill="black"/>
<path opacity="0.8" d="M753.707 580.088C753.994 580.088 754.227 579.855 754.227 579.567C754.227 579.28 753.994 579.047 753.707 579.047C753.419 579.047 753.186 579.28 753.186 579.567C753.186 579.855 753.419 580.088 753.707 580.088Z" fill="black"/>
<path opacity="0.8" d="M756.441 580.608C756.729 580.608 756.962 580.375 756.962 580.088C756.962 579.8 756.729 579.567 756.441 579.567C756.154 579.567 755.921 579.8 755.921 580.088C755.921 580.375 756.154 580.608 756.441 580.608Z" fill="black"/>
<path opacity="0.8" d="M750.71 579.047C750.998 579.047 751.231 578.814 751.231 578.526C751.231 578.239 750.998 578.006 750.71 578.006C750.423 578.006 750.19 578.239 750.19 578.526C750.19 578.814 750.423 579.047 750.71 579.047Z" fill="black"/>
<path opacity="0.8" d="M783.982 580.828C784.27 580.828 784.503 580.595 784.503 580.308C784.503 580.02 784.27 579.787 783.982 579.787C783.695 579.787 783.462 580.02 783.462 580.308C783.462 580.595 783.695 580.828 783.982 580.828Z" fill="black"/>
<path opacity="0.8" d="M777.944 581.869C778.231 581.869 778.464 581.636 778.464 581.349C778.464 581.061 778.231 580.828 777.944 580.828C777.656 580.828 777.423 581.061 777.423 581.349C777.423 581.636 777.656 581.869 777.944 581.869Z" fill="black"/>
<path opacity="0.8" d="M771.391 582.389C771.679 582.389 771.912 582.156 771.912 581.869C771.912 581.582 771.679 581.349 771.391 581.349C771.104 581.349 770.871 581.582 770.871 581.869C770.871 582.156 771.104 582.389 771.391 582.389Z" fill="black"/>
<path opacity="0.8" d="M765.43 582.389C765.718 582.389 765.951 582.156 765.951 581.869C765.951 581.582 765.718 581.349 765.43 581.349C765.143 581.349 764.91 581.582 764.91 581.869C764.91 582.156 765.143 582.389 765.43 582.389Z" fill="black"/>
</g>
<g opacity="0.8">
<path opacity="0.8" d="M792.877 580.869C793.164 580.869 793.398 580.636 793.398 580.349C793.398 580.061 793.164 579.828 792.877 579.828C792.59 579.828 792.357 580.061 792.357 580.349C792.357 580.636 792.59 580.869 792.877 580.869Z" fill="black"/>
<path opacity="0.8" d="M790.235 581.608C790.522 581.608 790.755 581.375 790.755 581.087C790.755 580.8 790.522 580.567 790.235 580.567C789.948 580.567 789.715 580.8 789.715 581.087C789.715 581.375 789.948 581.608 790.235 581.608Z" fill="black"/>
<path opacity="0.8" d="M786.971 582.649C787.258 582.649 787.491 582.416 787.491 582.128C787.491 581.841 787.258 581.608 786.971 581.608C786.683 581.608 786.45 581.841 786.45 582.128C786.45 582.416 786.683 582.649 786.971 582.649Z" fill="black"/>
<path opacity="0.8" d="M781.118 583.91C781.405 583.91 781.638 583.677 781.638 583.389C781.638 583.102 781.405 582.869 781.118 582.869C780.831 582.869 780.598 583.102 780.598 583.389C780.598 583.677 780.831 583.91 781.118 583.91Z" fill="black"/>
<path opacity="0.8" d="M774.948 584.657C775.235 584.657 775.468 584.424 775.468 584.136C775.468 583.849 775.235 583.616 774.948 583.616C774.66 583.616 774.427 583.849 774.427 584.136C774.427 584.424 774.66 584.657 774.948 584.657Z" fill="black"/>
<path opacity="0.8" d="M768.557 584.95C768.844 584.95 769.077 584.717 769.077 584.43C769.077 584.143 768.844 583.91 768.557 583.91C768.27 583.91 768.037 584.143 768.037 584.43C768.037 584.717 768.27 584.95 768.557 584.95Z" fill="black"/>
<path opacity="0.8" d="M759.384 583.689C759.672 583.689 759.905 583.456 759.905 583.169C759.905 582.882 759.672 582.649 759.384 582.649C759.097 582.649 758.864 582.882 758.864 583.169C758.864 583.456 759.097 583.689 759.384 583.689Z" fill="black"/>
<path opacity="0.8" d="M762.423 584.43C762.711 584.43 762.944 584.197 762.944 583.91C762.944 583.622 762.711 583.389 762.423 583.389C762.136 583.389 761.903 583.622 761.903 583.91C761.903 584.197 762.136 584.43 762.423 584.43Z" fill="black"/>
<path opacity="0.8" d="M753.707 582.649C753.994 582.649 754.227 582.416 754.227 582.128C754.227 581.841 753.994 581.608 753.707 581.608C753.419 581.608 753.186 581.841 753.186 582.128C753.186 582.416 753.419 582.649 753.707 582.649Z" fill="black"/>
<path opacity="0.8" d="M756.441 583.169C756.729 583.169 756.962 582.936 756.962 582.649C756.962 582.361 756.729 582.128 756.441 582.128C756.154 582.128 755.921 582.361 755.921 582.649C755.921 582.936 756.154 583.169 756.441 583.169Z" fill="black"/>
<path opacity="0.8" d="M750.71 581.608C750.998 581.608 751.231 581.375 751.231 581.087C751.231 580.8 750.998 580.567 750.71 580.567C750.423 580.567 750.19 580.8 750.19 581.087C750.19 581.375 750.423 581.608 750.71 581.608Z" fill="black"/>
<path opacity="0.8" d="M783.982 583.389C784.27 583.389 784.503 583.156 784.503 582.869C784.503 582.581 784.27 582.348 783.982 582.348C783.695 582.348 783.462 582.581 783.462 582.869C783.462 583.156 783.695 583.389 783.982 583.389Z" fill="black"/>
<path opacity="0.8" d="M777.944 584.43C778.231 584.43 778.464 584.197 778.464 583.91C778.464 583.622 778.231 583.389 777.944 583.389C777.656 583.389 777.423 583.622 777.423 583.91C777.423 584.197 777.656 584.43 777.944 584.43Z" fill="black"/>
<path opacity="0.8" d="M771.391 584.95C771.679 584.95 771.912 584.717 771.912 584.43C771.912 584.143 771.679 583.91 771.391 583.91C771.104 583.91 770.871 584.143 770.871 584.43C770.871 584.717 771.104 584.95 771.391 584.95Z" fill="black"/>
<path opacity="0.8" d="M765.43 584.95C765.718 584.95 765.951 584.717 765.951 584.43C765.951 584.143 765.718 583.91 765.43 583.91C765.143 583.91 764.91 584.143 764.91 584.43C764.91 584.717 765.143 584.95 765.43 584.95Z" fill="black"/>
</g>
<g opacity="0.8">
<path opacity="0.8" d="M792.877 583.43C793.164 583.43 793.398 583.197 793.398 582.91C793.398 582.622 793.164 582.389 792.877 582.389C792.59 582.389 792.357 582.622 792.357 582.91C792.357 583.197 792.59 583.43 792.877 583.43Z" fill="black"/>
<path opacity="0.8" d="M790.235 584.169C790.522 584.169 790.755 583.936 790.755 583.648C790.755 583.361 790.522 583.128 790.235 583.128C789.948 583.128 789.715 583.361 789.715 583.648C789.715 583.936 789.948 584.169 790.235 584.169Z" fill="black"/>
<path opacity="0.8" d="M786.971 585.21C787.258 585.21 787.491 584.977 787.491 584.689C787.491 584.402 787.258 584.169 786.971 584.169C786.683 584.169 786.45 584.402 786.45 584.689C786.45 584.977 786.683 585.21 786.971 585.21Z" fill="black"/>
<path opacity="0.8" d="M781.118 586.47C781.405 586.47 781.638 586.237 781.638 585.95C781.638 585.663 781.405 585.43 781.118 585.43C780.831 585.43 780.598 585.663 780.598 585.95C780.598 586.237 780.831 586.47 781.118 586.47Z" fill="black"/>
<path opacity="0.8" d="M774.948 587.218C775.235 587.218 775.468 586.985 775.468 586.697C775.468 586.41 775.235 586.177 774.948 586.177C774.66 586.177 774.427 586.41 774.427 586.697C774.427 586.985 774.66 587.218 774.948 587.218Z" fill="black"/>
<path opacity="0.8" d="M768.557 587.511C768.844 587.511 769.077 587.278 769.077 586.991C769.077 586.703 768.844 586.47 768.557 586.47C768.27 586.47 768.037 586.703 768.037 586.991C768.037 587.278 768.27 587.511 768.557 587.511Z" fill="black"/>
<path opacity="0.8" d="M759.384 586.25C759.672 586.25 759.905 586.017 759.905 585.73C759.905 585.443 759.672 585.21 759.384 585.21C759.097 585.21 758.864 585.443 758.864 585.73C758.864 586.017 759.097 586.25 759.384 586.25Z" fill="black"/>
<path opacity="0.8" d="M762.423 586.991C762.711 586.991 762.944 586.758 762.944 586.47C762.944 586.183 762.711 585.95 762.423 585.95C762.136 585.95 761.903 586.183 761.903 586.47C761.903 586.758 762.136 586.991 762.423 586.991Z" fill="black"/>
<path opacity="0.8" d="M753.707 585.21C753.994 585.21 754.227 584.977 754.227 584.689C754.227 584.402 753.994 584.169 753.707 584.169C753.419 584.169 753.186 584.402 753.186 584.689C753.186 584.977 753.419 585.21 753.707 585.21Z" fill="black"/>
<path opacity="0.8" d="M756.441 585.73C756.729 585.73 756.962 585.497 756.962 585.21C756.962 584.922 756.729 584.689 756.441 584.689C756.154 584.689 755.921 584.922 755.921 585.21C755.921 585.497 756.154 585.73 756.441 585.73Z" fill="black"/>
<path opacity="0.8" d="M750.71 584.169C750.998 584.169 751.231 583.936 751.231 583.648C751.231 583.361 750.998 583.128 750.71 583.128C750.423 583.128 750.19 583.361 750.19 583.648C750.19 583.936 750.423 584.169 750.71 584.169Z" fill="black"/>
<path opacity="0.8" d="M783.982 585.95C784.27 585.95 784.503 585.717 784.503 585.43C784.503 585.142 784.27 584.909 783.982 584.909C783.695 584.909 783.462 585.142 783.462 585.43C783.462 585.717 783.695 585.95 783.982 585.95Z" fill="black"/>
<path opacity="0.8" d="M777.944 586.991C778.231 586.991 778.464 586.758 778.464 586.47C778.464 586.183 778.231 585.95 777.944 585.95C777.656 585.95 777.423 586.183 777.423 586.47C777.423 586.758 777.656 586.991 777.944 586.991Z" fill="black"/>
<path opacity="0.8" d="M771.391 587.511C771.679 587.511 771.912 587.278 771.912 586.991C771.912 586.703 771.679 586.47 771.391 586.47C771.104 586.47 770.871 586.703 770.871 586.991C770.871 587.278 771.104 587.511 771.391 587.511Z" fill="black"/>
<path opacity="0.8" d="M765.43 587.511C765.718 587.511 765.951 587.278 765.951 586.991C765.951 586.703 765.718 586.47 765.43 586.47C765.143 586.47 764.91 586.703 764.91 586.991C764.91 587.278 765.143 587.511 765.43 587.511Z" fill="black"/>
</g>
<g opacity="0.8">
<path opacity="0.8" d="M792.877 585.991C793.164 585.991 793.398 585.758 793.398 585.471C793.398 585.183 793.164 584.95 792.877 584.95C792.59 584.95 792.357 585.183 792.357 585.471C792.357 585.758 792.59 585.991 792.877 585.991Z" fill="black"/>
<path opacity="0.8" d="M790.235 586.73C790.522 586.73 790.755 586.497 790.755 586.209C790.755 585.922 790.522 585.689 790.235 585.689C789.948 585.689 789.715 585.922 789.715 586.209C789.715 586.497 789.948 586.73 790.235 586.73Z" fill="black"/>
<path opacity="0.8" d="M786.971 587.771C787.258 587.771 787.491 587.538 787.491 587.25C787.491 586.963 787.258 586.73 786.971 586.73C786.683 586.73 786.45 586.963 786.45 587.25C786.45 587.538 786.683 587.771 786.971 587.771Z" fill="black"/>
<path opacity="0.8" d="M781.118 589.031C781.405 589.031 781.638 588.799 781.638 588.511C781.638 588.224 781.405 587.991 781.118 587.991C780.831 587.991 780.598 588.224 780.598 588.511C780.598 588.799 780.831 589.031 781.118 589.031Z" fill="black"/>
<path opacity="0.8" d="M774.948 589.779C775.235 589.779 775.468 589.546 775.468 589.258C775.468 588.971 775.235 588.738 774.948 588.738C774.66 588.738 774.427 588.971 774.427 589.258C774.427 589.546 774.66 589.779 774.948 589.779Z" fill="black"/>
<path opacity="0.8" d="M768.557 590.072C768.844 590.072 769.077 589.839 769.077 589.552C769.077 589.265 768.844 589.031 768.557 589.031C768.27 589.031 768.037 589.265 768.037 589.552C768.037 589.839 768.27 590.072 768.557 590.072Z" fill="black"/>
<path opacity="0.8" d="M759.384 588.811C759.672 588.811 759.905 588.578 759.905 588.291C759.905 588.004 759.672 587.771 759.384 587.771C759.097 587.771 758.864 588.004 758.864 588.291C758.864 588.578 759.097 588.811 759.384 588.811Z" fill="black"/>
<path opacity="0.8" d="M762.423 589.552C762.711 589.552 762.944 589.319 762.944 589.031C762.944 588.744 762.711 588.511 762.423 588.511C762.136 588.511 761.903 588.744 761.903 589.031C761.903 589.319 762.136 589.552 762.423 589.552Z" fill="black"/>
<path opacity="0.8" d="M753.707 587.771C753.994 587.771 754.227 587.538 754.227 587.25C754.227 586.963 753.994 586.73 753.707 586.73C753.419 586.73 753.186 586.963 753.186 587.25C753.186 587.538 753.419 587.771 753.707 587.771Z" fill="black"/>
<path opacity="0.8" d="M756.441 588.291C756.729 588.291 756.962 588.058 756.962 587.771C756.962 587.483 756.729 587.25 756.441 587.25C756.154 587.25 755.921 587.483 755.921 587.771C755.921 588.058 756.154 588.291 756.441 588.291Z" fill="black"/>
<path opacity="0.8" d="M750.71 586.73C750.998 586.73 751.231 586.497 751.231 586.209C751.231 585.922 750.998 585.689 750.71 585.689C750.423 585.689 750.19 585.922 750.19 586.209C750.19 586.497 750.423 586.73 750.71 586.73Z" fill="black"/>
<path opacity="0.8" d="M783.982 588.511C784.27 588.511 784.503 588.278 784.503 587.991C784.503 587.703 784.27 587.47 783.982 587.47C783.695 587.47 783.462 587.703 783.462 587.991C783.462 588.278 783.695 588.511 783.982 588.511Z" fill="black"/>
<path opacity="0.8" d="M777.944 589.552C778.231 589.552 778.464 589.319 778.464 589.031C778.464 588.744 778.231 588.511 777.944 588.511C777.656 588.511 777.423 588.744 777.423 589.031C777.423 589.319 777.656 589.552 777.944 589.552Z" fill="black"/>
<path opacity="0.8" d="M771.391 590.072C771.679 590.072 771.912 589.839 771.912 589.552C771.912 589.265 771.679 589.031 771.391 589.031C771.104 589.031 770.871 589.265 770.871 589.552C770.871 589.839 771.104 590.072 771.391 590.072Z" fill="black"/>
<path opacity="0.8" d="M765.43 590.072C765.718 590.072 765.951 589.839 765.951 589.552C765.951 589.265 765.718 589.031 765.43 589.031C765.143 589.031 764.91 589.265 764.91 589.552C764.91 589.839 765.143 590.072 765.43 590.072Z" fill="black"/>
</g>
<g opacity="0.8">
<path opacity="0.8" d="M792.877 588.552C793.164 588.552 793.398 588.319 793.398 588.032C793.398 587.744 793.164 587.511 792.877 587.511C792.59 587.511 792.357 587.744 792.357 588.032C792.357 588.319 792.59 588.552 792.877 588.552Z" fill="black"/>
<path opacity="0.8" d="M790.235 589.291C790.522 589.291 790.755 589.058 790.755 588.77C790.755 588.483 790.522 588.25 790.235 588.25C789.948 588.25 789.715 588.483 789.715 588.77C789.715 589.058 789.948 589.291 790.235 589.291Z" fill="black"/>
<path opacity="0.8" d="M786.971 590.332C787.258 590.332 787.491 590.099 787.491 589.811C787.491 589.524 787.258 589.291 786.971 589.291C786.683 589.291 786.45 589.524 786.45 589.811C786.45 590.099 786.683 590.332 786.971 590.332Z" fill="black"/>
<path opacity="0.8" d="M781.118 591.593C781.405 591.593 781.638 591.36 781.638 591.072C781.638 590.785 781.405 590.552 781.118 590.552C780.831 590.552 780.598 590.785 780.598 591.072C780.598 591.36 780.831 591.593 781.118 591.593Z" fill="black"/>
<path opacity="0.8" d="M774.948 592.34C775.235 592.34 775.468 592.107 775.468 591.819C775.468 591.532 775.235 591.299 774.948 591.299C774.66 591.299 774.427 591.532 774.427 591.819C774.427 592.107 774.66 592.34 774.948 592.34Z" fill="black"/>
<path opacity="0.8" d="M768.557 592.633C768.844 592.633 769.077 592.4 769.077 592.113C769.077 591.825 768.844 591.593 768.557 591.593C768.27 591.593 768.037 591.825 768.037 592.113C768.037 592.4 768.27 592.633 768.557 592.633Z" fill="black"/>
<path opacity="0.8" d="M759.384 591.372C759.672 591.372 759.905 591.139 759.905 590.852C759.905 590.565 759.672 590.332 759.384 590.332C759.097 590.332 758.864 590.565 758.864 590.852C758.864 591.139 759.097 591.372 759.384 591.372Z" fill="black"/>
<path opacity="0.8" d="M762.423 592.113C762.711 592.113 762.944 591.88 762.944 591.593C762.944 591.305 762.711 591.072 762.423 591.072C762.136 591.072 761.903 591.305 761.903 591.593C761.903 591.88 762.136 592.113 762.423 592.113Z" fill="black"/>
<path opacity="0.8" d="M753.707 590.332C753.994 590.332 754.227 590.099 754.227 589.811C754.227 589.524 753.994 589.291 753.707 589.291C753.419 589.291 753.186 589.524 753.186 589.811C753.186 590.099 753.419 590.332 753.707 590.332Z" fill="black"/>
<path opacity="0.8" d="M756.441 590.852C756.729 590.852 756.962 590.619 756.962 590.332C756.962 590.044 756.729 589.811 756.441 589.811C756.154 589.811 755.921 590.044 755.921 590.332C755.921 590.619 756.154 590.852 756.441 590.852Z" fill="black"/>
<path opacity="0.8" d="M750.71 589.291C750.998 589.291 751.231 589.058 751.231 588.77C751.231 588.483 750.998 588.25 750.71 588.25C750.423 588.25 750.19 588.483 750.19 588.77C750.19 589.058 750.423 589.291 750.71 589.291Z" fill="black"/>
<path opacity="0.8" d="M783.982 591.072C784.27 591.072 784.503 590.839 784.503 590.552C784.503 590.264 784.27 590.031 783.982 590.031C783.695 590.031 783.462 590.264 783.462 590.552C783.462 590.839 783.695 591.072 783.982 591.072Z" fill="black"/>
<path opacity="0.8" d="M777.944 592.113C778.231 592.113 778.464 591.88 778.464 591.593C778.464 591.305 778.231 591.072 777.944 591.072C777.656 591.072 777.423 591.305 777.423 591.593C777.423 591.88 777.656 592.113 777.944 592.113Z" fill="black"/>
<path opacity="0.8" d="M771.391 592.633C771.679 592.633 771.912 592.4 771.912 592.113C771.912 591.825 771.679 591.593 771.391 591.593C771.104 591.593 770.871 591.825 770.871 592.113C770.871 592.4 771.104 592.633 771.391 592.633Z" fill="black"/>
<path opacity="0.8" d="M765.43 592.633C765.718 592.633 765.951 592.4 765.951 592.113C765.951 591.825 765.718 591.593 765.43 591.593C765.143 591.593 764.91 591.825 764.91 592.113C764.91 592.4 765.143 592.633 765.43 592.633Z" fill="black"/>
</g>
<g opacity="0.8">
<path opacity="0.8" d="M792.877 591.113C793.164 591.113 793.398 590.88 793.398 590.593C793.398 590.305 793.164 590.072 792.877 590.072C792.59 590.072 792.357 590.305 792.357 590.593C792.357 590.88 792.59 591.113 792.877 591.113Z" fill="black"/>
<path opacity="0.8" d="M790.235 591.852C790.522 591.852 790.755 591.619 790.755 591.331C790.755 591.044 790.522 590.811 790.235 590.811C789.948 590.811 789.715 591.044 789.715 591.331C789.715 591.619 789.948 591.852 790.235 591.852Z" fill="black"/>
<path opacity="0.8" d="M786.971 592.893C787.258 592.893 787.491 592.66 787.491 592.372C787.491 592.085 787.258 591.852 786.971 591.852C786.683 591.852 786.45 592.085 786.45 592.372C786.45 592.66 786.683 592.893 786.971 592.893Z" fill="black"/>
<path opacity="0.8" d="M781.118 594.154C781.405 594.154 781.638 593.92 781.638 593.633C781.638 593.346 781.405 593.113 781.118 593.113C780.831 593.113 780.598 593.346 780.598 593.633C780.598 593.92 780.831 594.154 781.118 594.154Z" fill="black"/>
<path opacity="0.8" d="M774.948 594.901C775.235 594.901 775.468 594.668 775.468 594.38C775.468 594.093 775.235 593.86 774.948 593.86C774.66 593.86 774.427 594.093 774.427 594.38C774.427 594.668 774.66 594.901 774.948 594.901Z" fill="black"/>
<path opacity="0.8" d="M768.557 595.194C768.844 595.194 769.077 594.961 769.077 594.674C769.077 594.386 768.844 594.154 768.557 594.154C768.27 594.154 768.037 594.386 768.037 594.674C768.037 594.961 768.27 595.194 768.557 595.194Z" fill="black"/>
<path opacity="0.8" d="M759.384 593.933C759.672 593.933 759.905 593.7 759.905 593.413C759.905 593.126 759.672 592.893 759.384 592.893C759.097 592.893 758.864 593.126 758.864 593.413C758.864 593.7 759.097 593.933 759.384 593.933Z" fill="black"/>
<path opacity="0.8" d="M762.423 594.674C762.711 594.674 762.944 594.441 762.944 594.154C762.944 593.866 762.711 593.633 762.423 593.633C762.136 593.633 761.903 593.866 761.903 594.154C761.903 594.441 762.136 594.674 762.423 594.674Z" fill="black"/>
<path opacity="0.8" d="M753.707 592.893C753.994 592.893 754.227 592.66 754.227 592.372C754.227 592.085 753.994 591.852 753.707 591.852C753.419 591.852 753.186 592.085 753.186 592.372C753.186 592.66 753.419 592.893 753.707 592.893Z" fill="black"/>
<path opacity="0.8" d="M756.441 593.413C756.729 593.413 756.962 593.18 756.962 592.893C756.962 592.605 756.729 592.372 756.441 592.372C756.154 592.372 755.921 592.605 755.921 592.893C755.921 593.18 756.154 593.413 756.441 593.413Z" fill="black"/>
<path opacity="0.8" d="M750.71 591.852C750.998 591.852 751.231 591.619 751.231 591.331C751.231 591.044 750.998 590.811 750.71 590.811C750.423 590.811 750.19 591.044 750.19 591.331C750.19 591.619 750.423 591.852 750.71 591.852Z" fill="black"/>
<path opacity="0.8" d="M783.982 593.633C784.27 593.633 784.503 593.4 784.503 593.113C784.503 592.825 784.27 592.592 783.982 592.592C783.695 592.592 783.462 592.825 783.462 593.113C783.462 593.4 783.695 593.633 783.982 593.633Z" fill="black"/>
<path opacity="0.8" d="M777.944 594.674C778.231 594.674 778.464 594.441 778.464 594.154C778.464 593.866 778.231 593.633 777.944 593.633C777.656 593.633 777.423 593.866 777.423 594.154C777.423 594.441 777.656 594.674 777.944 594.674Z" fill="black"/>
<path opacity="0.8" d="M771.391 595.194C771.679 595.194 771.912 594.961 771.912 594.674C771.912 594.386 771.679 594.154 771.391 594.154C771.104 594.154 770.871 594.386 770.871 594.674C770.871 594.961 771.104 595.194 771.391 595.194Z" fill="black"/>
<path opacity="0.8" d="M765.43 595.194C765.718 595.194 765.951 594.961 765.951 594.674C765.951 594.386 765.718 594.154 765.43 594.154C765.143 594.154 764.91 594.386 764.91 594.674C764.91 594.961 765.143 595.194 765.43 595.194Z" fill="black"/>
</g>
<g opacity="0.8">
<path opacity="0.8" d="M792.877 593.674C793.164 593.674 793.398 593.441 793.398 593.154C793.398 592.866 793.164 592.633 792.877 592.633C792.59 592.633 792.357 592.866 792.357 593.154C792.357 593.441 792.59 593.674 792.877 593.674Z" fill="black"/>
<path opacity="0.8" d="M790.235 594.413C790.522 594.413 790.755 594.18 790.755 593.892C790.755 593.605 790.522 593.372 790.235 593.372C789.948 593.372 789.715 593.605 789.715 593.892C789.715 594.18 789.948 594.413 790.235 594.413Z" fill="black"/>
<path opacity="0.8" d="M786.971 595.454C787.258 595.454 787.491 595.221 787.491 594.933C787.491 594.646 787.258 594.413 786.971 594.413C786.683 594.413 786.45 594.646 786.45 594.933C786.45 595.221 786.683 595.454 786.971 595.454Z" fill="black"/>
<path opacity="0.8" d="M781.118 596.714C781.405 596.714 781.638 596.482 781.638 596.194C781.638 595.907 781.405 595.674 781.118 595.674C780.831 595.674 780.598 595.907 780.598 596.194C780.598 596.482 780.831 596.714 781.118 596.714Z" fill="black"/>
<path opacity="0.8" d="M774.948 597.462C775.235 597.462 775.468 597.229 775.468 596.941C775.468 596.654 775.235 596.421 774.948 596.421C774.66 596.421 774.427 596.654 774.427 596.941C774.427 597.229 774.66 597.462 774.948 597.462Z" fill="black"/>
<path opacity="0.8" d="M768.557 597.755C768.844 597.755 769.077 597.522 769.077 597.235C769.077 596.948 768.844 596.714 768.557 596.714C768.27 596.714 768.037 596.948 768.037 597.235C768.037 597.522 768.27 597.755 768.557 597.755Z" fill="black"/>
<path opacity="0.8" d="M759.384 596.494C759.672 596.494 759.905 596.261 759.905 595.974C759.905 595.687 759.672 595.454 759.384 595.454C759.097 595.454 758.864 595.687 758.864 595.974C758.864 596.261 759.097 596.494 759.384 596.494Z" fill="black"/>
<path opacity="0.8" d="M762.423 597.235C762.711 597.235 762.944 597.002 762.944 596.714C762.944 596.427 762.711 596.194 762.423 596.194C762.136 596.194 761.903 596.427 761.903 596.714C761.903 597.002 762.136 597.235 762.423 597.235Z" fill="black"/>
<path opacity="0.8" d="M753.707 595.454C753.994 595.454 754.227 595.221 754.227 594.933C754.227 594.646 753.994 594.413 753.707 594.413C753.419 594.413 753.186 594.646 753.186 594.933C753.186 595.221 753.419 595.454 753.707 595.454Z" fill="black"/>
<path opacity="0.8" d="M756.441 595.974C756.729 595.974 756.962 595.741 756.962 595.454C756.962 595.166 756.729 594.933 756.441 594.933C756.154 594.933 755.921 595.166 755.921 595.454C755.921 595.741 756.154 595.974 756.441 595.974Z" fill="black"/>
<path opacity="0.8" d="M750.71 594.413C750.998 594.413 751.231 594.18 751.231 593.892C751.231 593.605 750.998 593.372 750.71 593.372C750.423 593.372 750.19 593.605 750.19 593.892C750.19 594.18 750.423 594.413 750.71 594.413Z" fill="black"/>
<path opacity="0.8" d="M783.982 596.194C784.27 596.194 784.503 595.961 784.503 595.674C784.503 595.386 784.27 595.153 783.982 595.153C783.695 595.153 783.462 595.386 783.462 595.674C783.462 595.961 783.695 596.194 783.982 596.194Z" fill="black"/>
<path opacity="0.8" d="M777.944 597.235C778.231 597.235 778.464 597.002 778.464 596.714C778.464 596.427 778.231 596.194 777.944 596.194C777.656 596.194 777.423 596.427 777.423 596.714C777.423 597.002 777.656 597.235 777.944 597.235Z" fill="black"/>
<path opacity="0.8" d="M771.391 597.755C771.679 597.755 771.912 597.522 771.912 597.235C771.912 596.948 771.679 596.714 771.391 596.714C771.104 596.714 770.871 596.948 770.871 597.235C770.871 597.522 771.104 597.755 771.391 597.755Z" fill="black"/>
<path opacity="0.8" d="M765.43 597.755C765.718 597.755 765.951 597.522 765.951 597.235C765.951 596.948 765.718 596.714 765.43 596.714C765.143 596.714 764.91 596.948 764.91 597.235C764.91 597.522 765.143 597.755 765.43 597.755Z" fill="black"/>
</g>
<g opacity="0.8">
<path opacity="0.8" d="M792.877 596.235C793.164 596.235 793.398 596.002 793.398 595.715C793.398 595.427 793.164 595.194 792.877 595.194C792.59 595.194 792.357 595.427 792.357 595.715C792.357 596.002 792.59 596.235 792.877 596.235Z" fill="black"/>
<path opacity="0.8" d="M790.235 596.974C790.522 596.974 790.755 596.741 790.755 596.453C790.755 596.166 790.522 595.933 790.235 595.933C789.948 595.933 789.715 596.166 789.715 596.453C789.715 596.741 789.948 596.974 790.235 596.974Z" fill="black"/>
<path opacity="0.8" d="M786.971 598.015C787.258 598.015 787.491 597.782 787.491 597.494C787.491 597.207 787.258 596.974 786.971 596.974C786.683 596.974 786.45 597.207 786.45 597.494C786.45 597.782 786.683 598.015 786.971 598.015Z" fill="black"/>
<path opacity="0.8" d="M781.118 599.276C781.405 599.276 781.638 599.043 781.638 598.755C781.638 598.468 781.405 598.235 781.118 598.235C780.831 598.235 780.598 598.468 780.598 598.755C780.598 599.043 780.831 599.276 781.118 599.276Z" fill="black"/>
<path opacity="0.8" d="M774.948 600.023C775.235 600.023 775.468 599.79 775.468 599.502C775.468 599.215 775.235 598.982 774.948 598.982C774.66 598.982 774.427 599.215 774.427 599.502C774.427 599.79 774.66 600.023 774.948 600.023Z" fill="black"/>
<path opacity="0.8" d="M768.557 600.316C768.844 600.316 769.077 600.083 769.077 599.796C769.077 599.509 768.844 599.276 768.557 599.276C768.27 599.276 768.037 599.509 768.037 599.796C768.037 600.083 768.27 600.316 768.557 600.316Z" fill="black"/>
<path opacity="0.8" d="M759.384 599.055C759.672 599.055 759.905 598.822 759.905 598.535C759.905 598.248 759.672 598.015 759.384 598.015C759.097 598.015 758.864 598.248 758.864 598.535C758.864 598.822 759.097 599.055 759.384 599.055Z" fill="black"/>
<path opacity="0.8" d="M762.423 599.796C762.711 599.796 762.944 599.563 762.944 599.276C762.944 598.988 762.711 598.755 762.423 598.755C762.136 598.755 761.903 598.988 761.903 599.276C761.903 599.563 762.136 599.796 762.423 599.796Z" fill="black"/>
<path opacity="0.8" d="M753.707 598.015C753.994 598.015 754.227 597.782 754.227 597.494C754.227 597.207 753.994 596.974 753.707 596.974C753.419 596.974 753.186 597.207 753.186 597.494C753.186 597.782 753.419 598.015 753.707 598.015Z" fill="black"/>
<path opacity="0.8" d="M756.441 598.535C756.729 598.535 756.962 598.302 756.962 598.015C756.962 597.727 756.729 597.494 756.441 597.494C756.154 597.494 755.921 597.727 755.921 598.015C755.921 598.302 756.154 598.535 756.441 598.535Z" fill="black"/>
<path opacity="0.8" d="M750.71 596.974C750.998 596.974 751.231 596.741 751.231 596.453C751.231 596.166 750.998 595.933 750.71 595.933C750.423 595.933 750.19 596.166 750.19 596.453C750.19 596.741 750.423 596.974 750.71 596.974Z" fill="black"/>
<path opacity="0.8" d="M783.982 598.755C784.27 598.755 784.503 598.522 784.503 598.235C784.503 597.947 784.27 597.714 783.982 597.714C783.695 597.714 783.462 597.947 783.462 598.235C783.462 598.522 783.695 598.755 783.982 598.755Z" fill="black"/>
<path opacity="0.8" d="M777.944 599.796C778.231 599.796 778.464 599.563 778.464 599.276C778.464 598.988 778.231 598.755 777.944 598.755C777.656 598.755 777.423 598.988 777.423 599.276C777.423 599.563 777.656 599.796 777.944 599.796Z" fill="black"/>
<path opacity="0.8" d="M771.391 600.316C771.679 600.316 771.912 600.083 771.912 599.796C771.912 599.509 771.679 599.276 771.391 599.276C771.104 599.276 770.871 599.509 770.871 599.796C770.871 600.083 771.104 600.316 771.391 600.316Z" fill="black"/>
<path opacity="0.8" d="M765.43 600.316C765.718 600.316 765.951 600.083 765.951 599.796C765.951 599.509 765.718 599.276 765.43 599.276C765.143 599.276 764.91 599.509 764.91 599.796C764.91 600.083 765.143 600.316 765.43 600.316Z" fill="black"/>
</g>
<g opacity="0.8">
<path opacity="0.8" d="M792.877 598.796C793.164 598.796 793.398 598.563 793.398 598.276C793.398 597.988 793.164 597.755 792.877 597.755C792.59 597.755 792.357 597.988 792.357 598.276C792.357 598.563 792.59 598.796 792.877 598.796Z" fill="black"/>
<path opacity="0.8" d="M790.235 599.535C790.522 599.535 790.755 599.302 790.755 599.014C790.755 598.727 790.522 598.494 790.235 598.494C789.948 598.494 789.715 598.727 789.715 599.014C789.715 599.302 789.948 599.535 790.235 599.535Z" fill="black"/>
<path opacity="0.8" d="M786.971 600.576C787.258 600.576 787.491 600.343 787.491 600.055C787.491 599.768 787.258 599.535 786.971 599.535C786.683 599.535 786.45 599.768 786.45 600.055C786.45 600.343 786.683 600.576 786.971 600.576Z" fill="black"/>
<path opacity="0.8" d="M781.118 601.837C781.405 601.837 781.638 601.604 781.638 601.316C781.638 601.029 781.405 600.796 781.118 600.796C780.831 600.796 780.598 601.029 780.598 601.316C780.598 601.604 780.831 601.837 781.118 601.837Z" fill="black"/>
<path opacity="0.8" d="M774.948 602.584C775.235 602.584 775.468 602.351 775.468 602.063C775.468 601.776 775.235 601.543 774.948 601.543C774.66 601.543 774.427 601.776 774.427 602.063C774.427 602.351 774.66 602.584 774.948 602.584Z" fill="black"/>
<path opacity="0.8" d="M768.557 602.877C768.844 602.877 769.077 602.644 769.077 602.357C769.077 602.07 768.844 601.837 768.557 601.837C768.27 601.837 768.037 602.07 768.037 602.357C768.037 602.644 768.27 602.877 768.557 602.877Z" fill="black"/>
<path opacity="0.8" d="M759.384 601.617C759.672 601.617 759.905 601.384 759.905 601.096C759.905 600.809 759.672 600.576 759.384 600.576C759.097 600.576 758.864 600.809 758.864 601.096C758.864 601.384 759.097 601.617 759.384 601.617Z" fill="black"/>
<path opacity="0.8" d="M762.423 602.357C762.711 602.357 762.944 602.124 762.944 601.837C762.944 601.549 762.711 601.316 762.423 601.316C762.136 601.316 761.903 601.549 761.903 601.837C761.903 602.124 762.136 602.357 762.423 602.357Z" fill="black"/>
<path opacity="0.8" d="M753.707 600.576C753.994 600.576 754.227 600.343 754.227 600.055C754.227 599.768 753.994 599.535 753.707 599.535C753.419 599.535 753.186 599.768 753.186 600.055C753.186 600.343 753.419 600.576 753.707 600.576Z" fill="black"/>
<path opacity="0.8" d="M756.441 601.096C756.729 601.096 756.962 600.863 756.962 600.576C756.962 600.288 756.729 600.055 756.441 600.055C756.154 600.055 755.921 600.288 755.921 600.576C755.921 600.863 756.154 601.096 756.441 601.096Z" fill="black"/>
<path opacity="0.8" d="M750.71 599.535C750.998 599.535 751.231 599.302 751.231 599.014C751.231 598.727 750.998 598.494 750.71 598.494C750.423 598.494 750.19 598.727 750.19 599.014C750.19 599.302 750.423 599.535 750.71 599.535Z" fill="black"/>
<path opacity="0.8" d="M783.982 601.316C784.27 601.316 784.503 601.083 784.503 600.796C784.503 600.508 784.27 600.275 783.982 600.275C783.695 600.275 783.462 600.508 783.462 600.796C783.462 601.083 783.695 601.316 783.982 601.316Z" fill="black"/>
<path opacity="0.8" d="M777.944 602.357C778.231 602.357 778.464 602.124 778.464 601.837C778.464 601.549 778.231 601.316 777.944 601.316C777.656 601.316 777.423 601.549 777.423 601.837C777.423 602.124 777.656 602.357 777.944 602.357Z" fill="black"/>
<path opacity="0.8" d="M771.391 602.877C771.679 602.877 771.912 602.644 771.912 602.357C771.912 602.07 771.679 601.837 771.391 601.837C771.104 601.837 770.871 602.07 770.871 602.357C770.871 602.644 771.104 602.877 771.391 602.877Z" fill="black"/>
<path opacity="0.8" d="M765.43 602.877C765.718 602.877 765.951 602.644 765.951 602.357C765.951 602.07 765.718 601.837 765.43 601.837C765.143 601.837 764.91 602.07 764.91 602.357C764.91 602.644 765.143 602.877 765.43 602.877Z" fill="black"/>
</g>
<g opacity="0.8">
<path opacity="0.8" d="M792.877 601.357C793.164 601.357 793.398 601.124 793.398 600.837C793.398 600.549 793.164 600.316 792.877 600.316C792.59 600.316 792.357 600.549 792.357 600.837C792.357 601.124 792.59 601.357 792.877 601.357Z" fill="black"/>
<path opacity="0.8" d="M790.235 602.096C790.522 602.096 790.755 601.863 790.755 601.575C790.755 601.288 790.522 601.055 790.235 601.055C789.948 601.055 789.715 601.288 789.715 601.575C789.715 601.863 789.948 602.096 790.235 602.096Z" fill="black"/>
<path opacity="0.8" d="M786.971 603.137C787.258 603.137 787.491 602.904 787.491 602.616C787.491 602.329 787.258 602.096 786.971 602.096C786.683 602.096 786.45 602.329 786.45 602.616C786.45 602.904 786.683 603.137 786.971 603.137Z" fill="black"/>
<path opacity="0.8" d="M781.118 604.398C781.405 604.398 781.638 604.165 781.638 603.877C781.638 603.59 781.405 603.357 781.118 603.357C780.831 603.357 780.598 603.59 780.598 603.877C780.598 604.165 780.831 604.398 781.118 604.398Z" fill="black"/>
<path opacity="0.8" d="M774.948 605.145C775.235 605.145 775.468 604.912 775.468 604.624C775.468 604.337 775.235 604.104 774.948 604.104C774.66 604.104 774.427 604.337 774.427 604.624C774.427 604.912 774.66 605.145 774.948 605.145Z" fill="black"/>
<path opacity="0.8" d="M768.557 605.438C768.844 605.438 769.077 605.205 769.077 604.918C769.077 604.631 768.844 604.398 768.557 604.398C768.27 604.398 768.037 604.631 768.037 604.918C768.037 605.205 768.27 605.438 768.557 605.438Z" fill="black"/>
<path opacity="0.8" d="M759.384 604.178C759.672 604.178 759.905 603.945 759.905 603.657C759.905 603.37 759.672 603.137 759.384 603.137C759.097 603.137 758.864 603.37 758.864 603.657C758.864 603.945 759.097 604.178 759.384 604.178Z" fill="black"/>
<path opacity="0.8" d="M762.423 604.918C762.711 604.918 762.944 604.685 762.944 604.398C762.944 604.11 762.711 603.877 762.423 603.877C762.136 603.877 761.903 604.11 761.903 604.398C761.903 604.685 762.136 604.918 762.423 604.918Z" fill="black"/>
<path opacity="0.8" d="M753.707 603.137C753.994 603.137 754.227 602.904 754.227 602.616C754.227 602.329 753.994 602.096 753.707 602.096C753.419 602.096 753.186 602.329 753.186 602.616C753.186 602.904 753.419 603.137 753.707 603.137Z" fill="black"/>
<path opacity="0.8" d="M756.441 603.657C756.729 603.657 756.962 603.424 756.962 603.137C756.962 602.849 756.729 602.616 756.441 602.616C756.154 602.616 755.921 602.849 755.921 603.137C755.921 603.424 756.154 603.657 756.441 603.657Z" fill="black"/>
<path opacity="0.8" d="M750.71 602.096C750.998 602.096 751.231 601.863 751.231 601.575C751.231 601.288 750.998 601.055 750.71 601.055C750.423 601.055 750.19 601.288 750.19 601.575C750.19 601.863 750.423 602.096 750.71 602.096Z" fill="black"/>
<path opacity="0.8" d="M783.982 603.877C784.27 603.877 784.503 603.644 784.503 603.357C784.503 603.069 784.27 602.836 783.982 602.836C783.695 602.836 783.462 603.069 783.462 603.357C783.462 603.644 783.695 603.877 783.982 603.877Z" fill="black"/>
<path opacity="0.8" d="M777.944 604.918C778.231 604.918 778.464 604.685 778.464 604.398C778.464 604.11 778.231 603.877 777.944 603.877C777.656 603.877 777.423 604.11 777.423 604.398C777.423 604.685 777.656 604.918 777.944 604.918Z" fill="black"/>
<path opacity="0.8" d="M771.391 605.438C771.679 605.438 771.912 605.205 771.912 604.918C771.912 604.631 771.679 604.398 771.391 604.398C771.104 604.398 770.871 604.631 770.871 604.918C770.871 605.205 771.104 605.438 771.391 605.438Z" fill="black"/>
<path opacity="0.8" d="M765.43 605.438C765.718 605.438 765.951 605.205 765.951 604.918C765.951 604.631 765.718 604.398 765.43 604.398C765.143 604.398 764.91 604.631 764.91 604.918C764.91 605.205 765.143 605.438 765.43 605.438Z" fill="black"/>
</g>
<g opacity="0.8">
<path opacity="0.8" d="M792.877 603.918C793.164 603.918 793.398 603.685 793.398 603.398C793.398 603.11 793.164 602.877 792.877 602.877C792.59 602.877 792.357 603.11 792.357 603.398C792.357 603.685 792.59 603.918 792.877 603.918Z" fill="black"/>
<path opacity="0.8" d="M790.235 604.657C790.522 604.657 790.755 604.424 790.755 604.136C790.755 603.849 790.522 603.616 790.235 603.616C789.948 603.616 789.715 603.849 789.715 604.136C789.715 604.424 789.948 604.657 790.235 604.657Z" fill="black"/>
<path opacity="0.8" d="M786.971 605.698C787.258 605.698 787.491 605.465 787.491 605.177C787.491 604.89 787.258 604.657 786.971 604.657C786.683 604.657 786.45 604.89 786.45 605.177C786.45 605.465 786.683 605.698 786.971 605.698Z" fill="black"/>
<path opacity="0.8" d="M781.118 606.959C781.405 606.959 781.638 606.726 781.638 606.438C781.638 606.151 781.405 605.918 781.118 605.918C780.831 605.918 780.598 606.151 780.598 606.438C780.598 606.726 780.831 606.959 781.118 606.959Z" fill="black"/>
<path opacity="0.8" d="M774.948 607.706C775.235 607.706 775.468 607.473 775.468 607.185C775.468 606.898 775.235 606.665 774.948 606.665C774.66 606.665 774.427 606.898 774.427 607.185C774.427 607.473 774.66 607.706 774.948 607.706Z" fill="black"/>
<path opacity="0.8" d="M768.557 607.999C768.844 607.999 769.077 607.766 769.077 607.479C769.077 607.192 768.844 606.959 768.557 606.959C768.27 606.959 768.037 607.192 768.037 607.479C768.037 607.766 768.27 607.999 768.557 607.999Z" fill="black"/>
<path opacity="0.8" d="M759.384 606.739C759.672 606.739 759.905 606.506 759.905 606.218C759.905 605.931 759.672 605.698 759.384 605.698C759.097 605.698 758.864 605.931 758.864 606.218C758.864 606.506 759.097 606.739 759.384 606.739Z" fill="black"/>
<path opacity="0.8" d="M762.423 607.479C762.711 607.479 762.944 607.246 762.944 606.959C762.944 606.671 762.711 606.438 762.423 606.438C762.136 606.438 761.903 606.671 761.903 606.959C761.903 607.246 762.136 607.479 762.423 607.479Z" fill="black"/>
<path opacity="0.8" d="M753.707 605.698C753.994 605.698 754.227 605.465 754.227 605.177C754.227 604.89 753.994 604.657 753.707 604.657C753.419 604.657 753.186 604.89 753.186 605.177C753.186 605.465 753.419 605.698 753.707 605.698Z" fill="black"/>
<path opacity="0.8" d="M756.441 606.218C756.729 606.218 756.962 605.985 756.962 605.698C756.962 605.41 756.729 605.177 756.441 605.177C756.154 605.177 755.921 605.41 755.921 605.698C755.921 605.985 756.154 606.218 756.441 606.218Z" fill="black"/>
<path opacity="0.8" d="M750.71 604.657C750.998 604.657 751.231 604.424 751.231 604.136C751.231 603.849 750.998 603.616 750.71 603.616C750.423 603.616 750.19 603.849 750.19 604.136C750.19 604.424 750.423 604.657 750.71 604.657Z" fill="black"/>
<path opacity="0.8" d="M783.982 606.438C784.27 606.438 784.503 606.205 784.503 605.918C784.503 605.63 784.27 605.397 783.982 605.397C783.695 605.397 783.462 605.63 783.462 605.918C783.462 606.205 783.695 606.438 783.982 606.438Z" fill="black"/>
<path opacity="0.8" d="M777.944 607.479C778.231 607.479 778.464 607.246 778.464 606.959C778.464 606.671 778.231 606.438 777.944 606.438C777.656 606.438 777.423 606.671 777.423 606.959C777.423 607.246 777.656 607.479 777.944 607.479Z" fill="black"/>
<path opacity="0.8" d="M771.391 607.999C771.679 607.999 771.912 607.766 771.912 607.479C771.912 607.192 771.679 606.959 771.391 606.959C771.104 606.959 770.871 607.192 770.871 607.479C770.871 607.766 771.104 607.999 771.391 607.999Z" fill="black"/>
<path opacity="0.8" d="M765.43 607.999C765.718 607.999 765.951 607.766 765.951 607.479C765.951 607.192 765.718 606.959 765.43 606.959C765.143 606.959 764.91 607.192 764.91 607.479C764.91 607.766 765.143 607.999 765.43 607.999Z" fill="black"/>
</g>
<g opacity="0.8">
<path opacity="0.8" d="M792.877 606.479C793.164 606.479 793.398 606.246 793.398 605.959C793.398 605.671 793.164 605.438 792.877 605.438C792.59 605.438 792.357 605.671 792.357 605.959C792.357 606.246 792.59 606.479 792.877 606.479Z" fill="black"/>
<path opacity="0.8" d="M790.235 607.218C790.522 607.218 790.755 606.985 790.755 606.698C790.755 606.41 790.522 606.177 790.235 606.177C789.948 606.177 789.715 606.41 789.715 606.698C789.715 606.985 789.948 607.218 790.235 607.218Z" fill="black"/>
<path opacity="0.8" d="M786.971 608.259C787.258 608.259 787.491 608.026 787.491 607.738C787.491 607.451 787.258 607.218 786.971 607.218C786.683 607.218 786.45 607.451 786.45 607.738C786.45 608.026 786.683 608.259 786.971 608.259Z" fill="black"/>
<path opacity="0.8" d="M781.118 609.52C781.405 609.52 781.638 609.287 781.638 608.999C781.638 608.712 781.405 608.479 781.118 608.479C780.831 608.479 780.598 608.712 780.598 608.999C780.598 609.287 780.831 609.52 781.118 609.52Z" fill="black"/>
<path opacity="0.8" d="M774.948 610.267C775.235 610.267 775.468 610.034 775.468 609.746C775.468 609.459 775.235 609.226 774.948 609.226C774.66 609.226 774.427 609.459 774.427 609.746C774.427 610.034 774.66 610.267 774.948 610.267Z" fill="black"/>
<path opacity="0.8" d="M768.557 610.56C768.844 610.56 769.077 610.327 769.077 610.04C769.077 609.753 768.844 609.52 768.557 609.52C768.27 609.52 768.037 609.753 768.037 610.04C768.037 610.327 768.27 610.56 768.557 610.56Z" fill="black"/>
<path opacity="0.8" d="M759.384 609.3C759.672 609.3 759.905 609.067 759.905 608.779C759.905 608.492 759.672 608.259 759.384 608.259C759.097 608.259 758.864 608.492 758.864 608.779C758.864 609.067 759.097 609.3 759.384 609.3Z" fill="black"/>
<path opacity="0.8" d="M762.423 610.04C762.711 610.04 762.944 609.807 762.944 609.52C762.944 609.232 762.711 608.999 762.423 608.999C762.136 608.999 761.903 609.232 761.903 609.52C761.903 609.807 762.136 610.04 762.423 610.04Z" fill="black"/>
<path opacity="0.8" d="M753.707 608.259C753.994 608.259 754.227 608.026 754.227 607.738C754.227 607.451 753.994 607.218 753.707 607.218C753.419 607.218 753.186 607.451 753.186 607.738C753.186 608.026 753.419 608.259 753.707 608.259Z" fill="black"/>
<path opacity="0.8" d="M756.441 608.779C756.729 608.779 756.962 608.546 756.962 608.259C756.962 607.971 756.729 607.738 756.441 607.738C756.154 607.738 755.921 607.971 755.921 608.259C755.921 608.546 756.154 608.779 756.441 608.779Z" fill="black"/>
<path opacity="0.8" d="M750.71 607.218C750.998 607.218 751.231 606.985 751.231 606.698C751.231 606.41 750.998 606.177 750.71 606.177C750.423 606.177 750.19 606.41 750.19 606.698C750.19 606.985 750.423 607.218 750.71 607.218Z" fill="black"/>
<path opacity="0.8" d="M783.982 608.999C784.27 608.999 784.503 608.766 784.503 608.479C784.503 608.191 784.27 607.958 783.982 607.958C783.695 607.958 783.462 608.191 783.462 608.479C783.462 608.766 783.695 608.999 783.982 608.999Z" fill="black"/>
<path opacity="0.8" d="M777.944 610.04C778.231 610.04 778.464 609.807 778.464 609.52C778.464 609.232 778.231 608.999 777.944 608.999C777.656 608.999 777.423 609.232 777.423 609.52C777.423 609.807 777.656 610.04 777.944 610.04Z" fill="black"/>
<path opacity="0.8" d="M771.391 610.56C771.679 610.56 771.912 610.327 771.912 610.04C771.912 609.753 771.679 609.52 771.391 609.52C771.104 609.52 770.871 609.753 770.871 610.04C770.871 610.327 771.104 610.56 771.391 610.56Z" fill="black"/>
<path opacity="0.8" d="M765.43 610.56C765.718 610.56 765.951 610.327 765.951 610.04C765.951 609.753 765.718 609.52 765.43 609.52C765.143 609.52 764.91 609.753 764.91 610.04C764.91 610.327 765.143 610.56 765.43 610.56Z" fill="black"/>
</g>
<g opacity="0.8">
<path opacity="0.8" d="M792.877 609.04C793.164 609.04 793.398 608.807 793.398 608.52C793.398 608.233 793.164 608 792.877 608C792.59 608 792.357 608.233 792.357 608.52C792.357 608.807 792.59 609.04 792.877 609.04Z" fill="black"/>
<path opacity="0.8" d="M790.235 609.779C790.522 609.779 790.755 609.546 790.755 609.259C790.755 608.971 790.522 608.738 790.235 608.738C789.948 608.738 789.715 608.971 789.715 609.259C789.715 609.546 789.948 609.779 790.235 609.779Z" fill="black"/>
<path opacity="0.8" d="M786.971 610.82C787.258 610.82 787.491 610.587 787.491 610.299C787.491 610.012 787.258 609.779 786.971 609.779C786.683 609.779 786.45 610.012 786.45 610.299C786.45 610.587 786.683 610.82 786.971 610.82Z" fill="black"/>
<path opacity="0.8" d="M781.118 612.081C781.405 612.081 781.638 611.848 781.638 611.56C781.638 611.273 781.405 611.04 781.118 611.04C780.831 611.04 780.598 611.273 780.598 611.56C780.598 611.848 780.831 612.081 781.118 612.081Z" fill="black"/>
<path opacity="0.8" d="M774.948 612.828C775.235 612.828 775.468 612.595 775.468 612.307C775.468 612.02 775.235 611.787 774.948 611.787C774.66 611.787 774.427 612.02 774.427 612.307C774.427 612.595 774.66 612.828 774.948 612.828Z" fill="black"/>
<path opacity="0.8" d="M768.557 613.122C768.844 613.122 769.077 612.889 769.077 612.601C769.077 612.314 768.844 612.081 768.557 612.081C768.27 612.081 768.037 612.314 768.037 612.601C768.037 612.889 768.27 613.122 768.557 613.122Z" fill="black"/>
<path opacity="0.8" d="M759.384 611.861C759.672 611.861 759.905 611.628 759.905 611.34C759.905 611.053 759.672 610.82 759.384 610.82C759.097 610.82 758.864 611.053 758.864 611.34C758.864 611.628 759.097 611.861 759.384 611.861Z" fill="black"/>
<path opacity="0.8" d="M762.423 612.601C762.711 612.601 762.944 612.368 762.944 612.081C762.944 611.793 762.711 611.56 762.423 611.56C762.136 611.56 761.903 611.793 761.903 612.081C761.903 612.368 762.136 612.601 762.423 612.601Z" fill="black"/>
<path opacity="0.8" d="M753.707 610.82C753.994 610.82 754.227 610.587 754.227 610.299C754.227 610.012 753.994 609.779 753.707 609.779C753.419 609.779 753.186 610.012 753.186 610.299C753.186 610.587 753.419 610.82 753.707 610.82Z" fill="black"/>
<path opacity="0.8" d="M756.441 611.34C756.729 611.34 756.962 611.107 756.962 610.82C756.962 610.532 756.729 610.299 756.441 610.299C756.154 610.299 755.921 610.532 755.921 610.82C755.921 611.107 756.154 611.34 756.441 611.34Z" fill="black"/>
<path opacity="0.8" d="M750.71 609.779C750.998 609.779 751.231 609.546 751.231 609.259C751.231 608.971 750.998 608.738 750.71 608.738C750.423 608.738 750.19 608.971 750.19 609.259C750.19 609.546 750.423 609.779 750.71 609.779Z" fill="black"/>
<path opacity="0.8" d="M783.982 611.56C784.27 611.56 784.503 611.327 784.503 611.04C784.503 610.752 784.27 610.519 783.982 610.519C783.695 610.519 783.462 610.752 783.462 611.04C783.462 611.327 783.695 611.56 783.982 611.56Z" fill="black"/>
<path opacity="0.8" d="M777.944 612.601C778.231 612.601 778.464 612.368 778.464 612.081C778.464 611.793 778.231 611.56 777.944 611.56C777.656 611.56 777.423 611.793 777.423 612.081C777.423 612.368 777.656 612.601 777.944 612.601Z" fill="black"/>
<path opacity="0.8" d="M771.391 613.122C771.679 613.122 771.912 612.889 771.912 612.601C771.912 612.314 771.679 612.081 771.391 612.081C771.104 612.081 770.871 612.314 770.871 612.601C770.871 612.889 771.104 613.122 771.391 613.122Z" fill="black"/>
<path opacity="0.8" d="M765.43 613.122C765.718 613.122 765.951 612.889 765.951 612.601C765.951 612.314 765.718 612.081 765.43 612.081C765.143 612.081 764.91 612.314 764.91 612.601C764.91 612.889 765.143 613.122 765.43 613.122Z" fill="black"/>
</g>
</svg>
