<?xml version="1.0"?>
<svg xmlns="http://www.w3.org/2000/svg" xmlns:xlink="http://www.w3.org/1999/xlink" xmlns:svgjs="http://svgjs.com/svgjs" version="1.1" width="512" height="512" x="0" y="0" viewBox="0 0 74 74" style="enable-background:new 0 0 512 512" xml:space="preserve"><g><path xmlns="http://www.w3.org/2000/svg" d="m62.5 54.673a1 1 0 0 1 -1-1v-33.345a1 1 0 0 1 2 0v33.345a1 1 0 0 1 -1 1z" fill="#ffffff" data-original="#000000" style=""/><path xmlns="http://www.w3.org/2000/svg" d="m37 54.673a1 1 0 0 1 -1-1v-33.345a1 1 0 0 1 2 0v33.345a1 1 0 0 1 -1 1z" fill="#ffffff" data-original="#000000" style=""/><path xmlns="http://www.w3.org/2000/svg" d="m54 58.923a1 1 0 0 1 -1-1v-41.845a1 1 0 0 1 2 0v41.845a1 1 0 0 1 -1 1z" fill="#ffffff" data-original="#000000" style=""/><path xmlns="http://www.w3.org/2000/svg" d="m45.5 66.006a1 1 0 0 1 -1-1v-56.012a1 1 0 0 1 2 0v56.012a1 1 0 0 1 -1 1z" fill="#ffffff" data-original="#000000" style=""/><path xmlns="http://www.w3.org/2000/svg" d="m11.5 54.673a1 1 0 0 1 -1-1v-33.345a1 1 0 0 1 2 0v33.345a1 1 0 0 1 -1 1z" fill="#ffffff" data-original="#000000" style=""/><path xmlns="http://www.w3.org/2000/svg" d="m20 49.006a1 1 0 0 1 -1-1v-22.012a1 1 0 0 1 2 0v22.012a1 1 0 0 1 -1 1z" fill="#ffffff" data-original="#000000" style=""/><path xmlns="http://www.w3.org/2000/svg" d="m28.5 66.006a1 1 0 0 1 -1-1v-56.012a1 1 0 0 1 2 0v56.012a1 1 0 0 1 -1 1z" fill="#ffffff" data-original="#000000" style=""/><path xmlns="http://www.w3.org/2000/svg" d="m71 49.479a1 1 0 0 1 -1-1v-22.957a1 1 0 1 1 2 0v22.957a1 1 0 0 1 -1 1z" fill="#ffffff" data-original="#000000" style=""/><path xmlns="http://www.w3.org/2000/svg" d="m3 43.288a1 1 0 0 1 -1-1v-10.575a1 1 0 0 1 2 0v10.575a1 1 0 0 1 -1 1z" fill="#ffffff" data-original="#000000" style=""/></g></svg>
