<svg id="Capa_1" enable-background="new 0 0 512 512" height="512" viewBox="0 0 512 512" width="512" xmlns="http://www.w3.org/2000/svg"><g><g><g><g><g><path d="m255.97 449.299-255.97-48.439v-276.838h207.948c26.538 0 48.022 21.514 48.022 48.052l20.159 138.177z" fill="#f1f1f1"/><path d="m255.97 449.299 256.03-48.439v-276.838h-207.948c-26.538 0-48.082 21.514-48.082 48.052z" fill="#d6d6ea"/></g><g><path d="m42.129 250.041h163.114v30.92h-163.114z" fill="#e4e4f2"/></g><g><path d="m42.129 312.884h163.114v30.92h-163.114z" fill="#e4e4f2"/></g><g><path d="m255.97 449.299h-255.97v-48.439h210.652c25.045 0 45.318 20.303 45.318 45.348z" fill="#63e1ce"/><path d="m255.97 449.299h256.03v-48.439h-210.652c-25.045 0-45.379 20.303-45.379 45.348v3.091z" fill="#4fbbbf"/></g></g></g><g><path d="m423.847 244.756h49.541v30.92h-49.541z" fill="#bac1e3"/></g><g><path d="m42.129 186.31h163.114v30.92h-163.114z" fill="#e4e4f2"/></g><g><path d="m423.847 181.025h49.541v30.92h-49.541z" fill="#bac1e3"/></g><g><path d="m305.005 307.6h168.383v30.92h-168.383z" fill="#bac1e3"/></g></g><path d="m255.97 387.978c.017-44.571 36.153-80.694 80.724-80.694h108.07v-244.583h-72.585c-64.18 0-116.209 52.029-116.209 116.209z" fill="#e4e4f2"/><g><g><g><g><path d="m374.84 114.189h28.935v30.059h-28.935z" fill="#d6d6ea"/></g></g></g><g><g><g><path d="m303.858 232.639h99.916v30.059h-99.916z" fill="#d6d6ea"/></g></g></g><g><g><g><path d="m303.858 172.521h99.916v30.059h-99.916z" fill="#d6d6ea"/></g></g></g></g></g></svg>