<svg id="Layer_1" enable-background="new 0 0 510 510" height="512" viewBox="0 0 510 510" width="512" xmlns="http://www.w3.org/2000/svg"><g><path d="m255 79.881c-18.172-29.881-51.044-49.881-88.5-49.881h-166.5v375l132.5 10 122.5-10 10-195z" fill="#ecf2ff"/><path d="m0 405v45h255l10-22.5-10-22.5z" fill="#d8e4fe"/><path d="m510 405v-375h-166.5c-37.456 0-70.328 20-88.5 49.881v325.119l127.5 10z" fill="#d8e4fe"/><path d="m255 405h255v45h-255z" fill="#bfd6ff"/><path d="m0 450v30h255l10-15-10-15z" fill="#ecf2ff"/><path d="m255 450h255v30h-255z" fill="#d8e4fe"/><path d="m135 229.968c-5.917-5.36-45-36.412-45-64.968 0-26.717 33.31-54.377 45-64.968 5.917 5.36 45 36.412 45 64.968 0 26.717-33.31 54.377-45 64.968z" fill="#6cf"/><circle cx="375" cy="315" fill="#27d072" r="45"/><path d="m60 270h150v90h-150z" fill="#98e53b"/><path d="m428.033 114.54c-11.716-11.716-30.711-11.716-42.427 0l-10.606 10.607-10.606-10.607c-11.716-11.716-30.711-11.716-42.427 0-11.716 11.716-11.716 30.711 0 42.426 5.25 5.25 47.051 47.05 53.033 53.033 5.976-5.976 47.749-47.749 53.033-53.033 11.716-11.715 11.716-30.71 0-42.426z" fill="#bc00a2"/></g></svg>