<svg id="Capa_1" enable-background="new 0 0 512 512" height="512" viewBox="0 0 512 512" width="512" xmlns="http://www.w3.org/2000/svg"><g><g><path d="m0 322.5v92.963h187.072c29.735 0 53.928 24.241 53.928 54.038h15l29.471-73.5-29.471-73.501z" fill="#f0e6e6"/><path d="m256 322.5v147h15c0-29.797 24.192-54.038 53.928-54.038h187.072v-92.962z" fill="#d2cbd7"/></g><g><path d="m0 42.5v288.589h187.072c29.736 0 53.928 24.242 53.928 54.039h15l23.118-171.314-23.118-171.314z" fill="#fff7f4"/><path d="m256 42.5v342.627h15c0-29.797 24.191-54.039 53.928-54.039h187.072v-288.588z" fill="#f0e6e6"/></g><path d="m451.5 192.747h-150v-90h150z" fill="#73ca7a"/><path d="m210.5 192.747h-150v-90h150z" fill="#b9e68b"/><path d="m60.5 222.747h150.088v30h-150.088z" fill="#73ca7a"/><path d="m301.456 222.747h150.088v30h-150.088z" fill="#5fa794"/></g></svg>