<svg height="512" viewBox="0 0 512 512" width="512" xmlns="http://www.w3.org/2000/svg"><g id="Layer_14" data-name="Layer 14"><path d="m284.03 142.02c-9.16-12.86-19.65-27.26-27.66-37.02a132.953 132.953 0 0 1 -18.8-30.41 56.164 56.164 0 0 0 -6.44-11.28l-.01.01c-6.41 11.06-21.38 12.81-21.38 12.81l21.38 33.55 22.47 41.05v.01a42.883 42.883 0 0 1 9.65 11.19h.01a23.14 23.14 0 0 0 17.51-4.16l3.28-15.74z" fill="#8cc540"/><path d="m266.93 174.77c.24 5-.66 10.62-2.86 17.15-3.86 11.49-16.83 18.42-19.21 30.31-3.82 19.15-12.97 24.91-13.38 25.16l-.01.01c-16.7 3.93-26.95 9.39-32.85 13.59a65.191 65.191 0 0 1 -15.77 8.3v.01a57.95 57.95 0 0 1 -10.89 2.76c-36.04 5.44-42.17-17.11-53.97-53-.93-2.85-1.71-5.62-2.34-8.33-3.64-15.48-2.6-28.73.52-39.63a73.993 73.993 0 0 1 23.56-36.33 79.876 79.876 0 0 1 39.51-14.25 75.439 75.439 0 0 1 38.93 7.48q3.825 1.83 7.74 4.18c11.2 6.77 20.67 12.51 27.68 18.55v.01a42.883 42.883 0 0 1 9.65 11.19h.01a28.211 28.211 0 0 1 3.68 12.84z" fill="#d8ddea"/><path d="m145.99 212.06c-.93-2.85-1.71-5.62-2.34-8.33-3.64-15.48-2.6-28.73.52-39.63a73.993 73.993 0 0 1 23.56-36.33 68.634 68.634 0 0 1 12.858-7.336c-.451.027-.9.051-1.348.086a79.876 79.876 0 0 0 -39.51 14.25 73.993 73.993 0 0 0 -23.56 36.33c-3.12 10.9-4.16 24.15-.52 39.63.63 2.71 1.41 5.48 2.34 8.33 11.8 35.89 17.93 58.44 53.97 53a57.95 57.95 0 0 0 10.89-2.76v-.01a62.54 62.54 0 0 0 7.816-3.429c-27.932.333-33.972-21.244-44.676-53.801z" fill="#c1c7d3"/><path d="m435.36 485.88a4.369 4.369 0 0 1 -2.08 5.23l-17.32 9.36a4.373 4.373 0 0 1 -6.44-3.56c-.62-9.38-2.61-26.32-9.05-37.89a60.868 60.868 0 0 1 -5.55-13.35v-.02s15.13 3.87 31.12-7.56a67.852 67.852 0 0 1 3.09 16.15 130.039 130.039 0 0 0 6.23 31.64z" fill="#575757"/><path d="m386.99 336.15-10.24-33.66a38.4 38.4 0 0 0 -3.78-7.02c-3.25 4.63-25.94 14.55-25.94 14.55l-.01.01c3 2.42 47.9 84.4 47.89 135.62h.01s15.13 3.87 31.12-7.56c-19.891-41.925-39.05-101.94-39.05-101.94z" fill="#8cc540"/><path d="m364.27 283.11-17.44-33.16-40.14-72.09c-2.33-3.1-4.38-7.66-6.07-10.98l-19.86-9.11a23.14 23.14 0 0 1 -17.51 4.16 28.211 28.211 0 0 1 3.68 12.84l38.48 59.93 24.9 35.04 7.48 31.13c-.15 1.48-.3 2.92-.46 4.32a13.953 13.953 0 0 1 2.9.87 24.705 24.705 0 0 1 6.79 3.97l.01-.01s22.69-9.92 25.94-14.55c-3.74-5.87-8.7-12.36-8.7-12.36z" fill="#575757"/><path d="m231.13 63.31-.01.01c-6.41 11.06-21.38 12.81-21.38 12.81a27.8 27.8 0 0 0 -10.81-.25h-.01c-6.23-4.13-16.54-22.59-22.69-34.4a8.261 8.261 0 0 1 6.27-12.01l14.76-1.88a8.261 8.261 0 0 1 8.62 4.98c3.33 7.78 10.01 21.07 18.17 24.69a19.212 19.212 0 0 1 7.08 6.05z" fill="#575757"/><path d="m363.51 339.3c-5.67-.54-12.37.57-15.75.79-10.22.67-15.74 6.55-21.68 13.61.62-.93 7.12-11.43 11.25-48.51a13.953 13.953 0 0 1 2.9.87 24.705 24.705 0 0 1 6.79 3.97 26.2 26.2 0 0 1 7.15 9.08c2.31 4.83 5.62 11.87 9.34 20.19z" fill="#5f636d"/><path d="m352.51 216.93c6.83-8.77 24.29-25.15 46.31-22.42 0 0-8.1 35.86-60.81 39.89a82.486 82.486 0 0 0 14.5-17.47z" fill="#a7d861"/><path d="m394.91 445.65c.01.01.01.01.01.02-8.62 40.22-40.54 39.52-40.54 39.52-.61-16.05 9.55-26.65 19.22-33.07.01 0 .01-.01.02-.01a68.977 68.977 0 0 1 16.76-8.09q2.235.75 4.53 1.63z" fill="#81c83d"/><path d="m373.77 439.9a99.637 99.637 0 0 1 16.61 4.12 68.977 68.977 0 0 0 -16.76 8.09c-.01 0-.01.01-.02.01-9.92 5.02-32.42 13.27-51.17 1.41 0 0 14.72-17.04 45.8-14.31q2.685.225 5.54.68z" fill="#d0db65"/><path d="m337.33 305.19c-4.13 37.08-10.63 47.58-11.25 48.51a.4.4 0 0 1 -.05.07c-2.51 2.99-5.1 6.19-8.15 9.29-4.63 4.7-12.47 7.7-18.47 9.44q-4.305 1.23-8.48 2.87v-.01s-60.8-25.91-9.56-82.3c0 0 7.63-8.79 24.04-15.72a100.657 100.657 0 0 1 19.7-5.97 25.56 25.56 0 0 0 5.2-1.63 23.967 23.967 0 0 0 11.82-11.18 49.688 49.688 0 0 0 2.04-4.71 9.9 9.9 0 0 1 12.54-5.88c8.96 3.2 20.7 10.39 17.7 25.71a10.653 10.653 0 0 1 -5.29 7.26 44.024 44.024 0 0 1 -4.85 2.17c-9.56 3.77-25.58 8.85-26.48 17.76-.15 1.48-.3 2.92-.46 4.32z" fill="#6d7486"/><path d="m353.73 388.71s26.76 10.63 20.04 51.19q-2.85-.45-5.54-.68s-26.71-22.52-14.5-50.51z" fill="#a7d861"/><path d="m356.46 179.5c6.93 13.4 2.37 27.08-3.95 37.43a82.486 82.486 0 0 1 -14.5 17.47c-9.31-40.08 18.45-54.9 18.45-54.9z" fill="#81c83d"/><path d="m305.41 234.7a143.487 143.487 0 0 0 -12.3 18.84q-1.35 2.43-2.85 4.75a85.245 85.245 0 0 1 -40.19 33.03 166.557 166.557 0 0 0 -45.23 26.91c-22.25-21.88-22-48.3-21.99-48.93v-.01a65.191 65.191 0 0 0 15.77-8.3c5.9-4.2 16.15-9.66 32.85-13.59l.01-.01c1.06-.24 2.14-.48 3.25-.72a63.424 63.424 0 0 0 38.04-24.38 167.806 167.806 0 0 0 12.14-19.02 79.651 79.651 0 0 0 5.51-12.09c1.77-5.27 8.87-11.11 16.27-13.32 9.64-2.88 19.79.37 19.33 18.99a47.275 47.275 0 0 1 -1.83 13.2c-2.93 9.24-9.31 12.48-18.78 24.65z" fill="#6d7486"/><path d="m290.26 258.29s12.61 9.32 15.15 19.05c-16.41 6.93-24.04 15.72-24.04 15.72-51.24 56.39 9.56 82.3 9.56 82.3v.01q-3.765 1.455-7.4 3.27c-66.17 33.04-78.69-60.41-78.69-60.41a166.557 166.557 0 0 1 45.23-26.91 85.245 85.245 0 0 0 40.19-33.03z" fill="#d8ddea"/><path d="m296.67 92.07s-27.13 6.26-43.18-31.4c1.78-.77 3.46-1.58 5.06-2.42l.01.03s33.43 3.61 38.11 33.79z" fill="#d0db65"/><path d="m253.49 60.67a100.3 100.3 0 0 1 -19.93 6.18 78.27 78.27 0 0 0 12.45-19.84c5.67-9.56 20.2-26.4 42.39-26.47 0 0-1.99 23.15-29.85 37.71-1.6.84-3.28 1.65-5.06 2.42z" fill="#81c83d"/><path d="m244.48 11c8.26 11.98 6.05 25.36 1.53 36.01a78.27 78.27 0 0 1 -12.45 19.84c-14.26-38.59 10.92-55.85 10.92-55.85z" fill="#a7d861"/><g fill="#6d7486"><path d="m209.74 76.13a28.15 28.15 0 0 1 21.38 33.55 27.537 27.537 0 0 1 -12.95 18.32 75.439 75.439 0 0 0 -38.93-7.48c-3.87-6.07-4.64-15.36-2.97-22.95a28.123 28.123 0 0 1 22.65-21.69h.01a27.8 27.8 0 0 1 10.81.25z"/><path d="m115.65 210.73h-.01c-5.13 5.62-12.49 8.6-20.69 8.6a28.15 28.15 0 0 1 0-56.3c7.75 0 16.14 2.98 21.22 8.07-3.12 10.9-4.16 24.15-.52 39.63z"/><path d="m170.6 194.84c0 14.27 3.78 34.21-14.22 42.02a10.858 10.858 0 0 1 -14.41-6.19c-14.64-38.59 4.83-49.02 11.58-51.39a9.077 9.077 0 0 1 4.41-.44c4.17.64 12.64 3.49 12.64 16z"/><path d="m232.83 156.37a10.9 10.9 0 0 1 3.82 15.23c-10.54 16.58-29.59 9.69-43.65 7.43-12.33-1.98-13.79-10.81-13.76-15.04a9.094 9.094 0 0 1 1.13-4.29c3.41-6.31 16.76-23.93 52.46-3.33z"/></g><path d="m153.79 201.98a4.085 4.085 0 1 1 -4.07 4.08 4.076 4.076 0 0 1 4.07-4.08z" fill="#4a5160"/><path d="m213.25 164.66a4.07 4.07 0 1 0 -4.07 4.09 4.076 4.076 0 0 0 4.07-4.09z" fill="#4a5160"/><path d="m222.53 209.2c9.5 36.53-28.74 23.07-28.74 23.07 7.96-8.1 6.71-23.81 6.66-24.34l.01-.01c9.96 4.55 17.09 3.83 22.07 1.28z" fill="#caced8"/><path d="m201.65 193.7c-4.42 1.17-6.18.95-10.78 3.85-2.64 1.66-4.21 6.22-5.38 8.96a2.55 2.55 0 0 0 2.7 3.52l11.03-1.57a2.481 2.481 0 0 0 1.23-.53h.038l-.028-.012a2.522 2.522 0 0 0 .8-1.14l3.43-9.77a2.54 2.54 0 0 0 -3.04-3.308z" fill="#6d7486"/><path d="m295.98 141.06c12.15 8.45 19.12 22.26 4.64 25.82-13.52 3.31-18.65-2.09-19.86-9.11a28.62 28.62 0 0 1 .62-11.1 9.486 9.486 0 0 1 14.6-5.61z" fill="#6d7486"/><path d="m386.9 307.23c6.11 9.66 10.84 27.24.09 28.92a6.176 6.176 0 0 1 -6.92-5.58c-2.39-21.59-21.3-20.02-3.32-28.08.27-.12.56-.25.86-.38a5.6 5.6 0 0 1 6.38 1.3 26.842 26.842 0 0 1 2.91 3.82z" fill="#5f636d"/><path d="m210.9 254.136a70.163 70.163 0 0 0 -12.282 6.854 65.191 65.191 0 0 1 -15.77 8.3v.01c-.01.63-.26 27.05 21.99 48.93a157.184 157.184 0 0 1 26.807-18.218 73.447 73.447 0 0 1 -20.745-45.876z" fill="#585e6b"/><path d="m232.177 299.726a157.9 157.9 0 0 0 -27.337 18.5s12.52 93.45 78.69 60.41q3.63-1.815 7.4-3.27v-.01s-.722-.308-1.942-.929c-41.449 4.526-54.241-58.666-56.811-74.701z" fill="#c1c7d3"/><path d="m181.6 243q-1.074 0-2.18-.079a6 6 0 0 1 .857-11.969c4.026.284 7.046-.654 9.234-2.88 5.023-5.109 5.276-16.152 4.968-19.618a6 6 0 0 1 8.468-5.988c6.588 3 12.072 3.564 16.3 1.66 5.634-2.537 7.815-8.963 7.835-9.026a6 6 0 1 1 11.477 3.5c-.145.473-3.661 11.633-14.386 16.462-5.332 2.4-11.317 2.818-17.868 1.247-.626 6.254-2.6 14.434-8.239 20.171a22.4 22.4 0 0 1 -16.466 6.52z" fill="#b9bfc9"/></g></svg>