<svg id="Capa_1" enable-background="new 0 0 512 512" height="512" viewBox="0 0 512 512" width="512" xmlns="http://www.w3.org/2000/svg"><g><path d="m512 256c0 11.49-.76 22.8-2.23 33.89-16.58 125.36-483.72 131.76-505.56 12.55-2.77-15.06-4.21-30.58-4.21-46.44 0-141.38 114.62-256 256-256s256 114.62 256 256z" fill="#8bc852"/><path d="m66.537 49.376c-3.679 3.452-7.239 7.024-10.68 10.715-15.462 16.584-15.462 42.461 0 59.045 10.86 11.648 22.907 22.11 36.14 31.385 2.754 1.931 6.431 1.931 9.186 0 22.072-15.47 40.844-34.242 56.314-56.314 1.931-2.754 1.931-6.431 0-9.186-9.134-13.032-19.419-24.914-30.855-35.644-16.942-15.899-43.162-15.899-60.105-.001z" fill="#2f373b"/><path d="m457.473 49.376c3.679 3.452 7.239 7.024 10.68 10.715 15.462 16.584 15.462 42.461 0 59.045-10.86 11.648-22.907 22.11-36.14 31.385-2.754 1.931-6.431 1.931-9.186 0-22.072-15.47-40.844-34.242-56.314-56.314-1.931-2.754-1.931-6.431 0-9.186 9.134-13.032 19.419-24.914 30.855-35.644 16.943-15.899 43.163-15.899 60.105-.001z" fill="#2f373b"/><g fill="#181e21"><path d="m439.911 72.171c1.837 1.723 3.614 3.506 5.331 5.348 7.718 8.278 7.718 21.195 0 29.473-5.421 5.814-11.434 11.036-18.039 15.666-1.375.964-3.21.964-4.585 0-11.018-7.722-20.387-17.092-28.11-28.11-.964-1.375-.964-3.21 0-4.585 4.559-6.505 9.693-12.436 15.401-17.792 8.457-7.936 21.545-7.936 30.002 0z"/><path d="m84.1 72.171c-1.837 1.723-3.614 3.506-5.331 5.348-7.718 8.278-7.718 21.195 0 29.473 5.421 5.814 11.434 11.036 18.039 15.666 1.375.964 3.21.964 4.585 0 11.018-7.722 20.387-17.092 28.11-28.11.964-1.375.964-3.21 0-4.585-4.559-6.505-9.693-12.436-15.401-17.792-8.458-7.936-21.545-7.936-30.002 0z"/></g><path d="m509.77 289.89c-16.58 125.36-123.88 222.11-253.77 222.11-125.52 0-229.95-90.35-251.79-209.56 60.13-78.7 153.26-134.28 257.8-134.28 98.89 0 187.56 49.74 247.76 121.73z" fill="#2f373b"/><path d="m483.64 254.016c0-111.38-99.229-224.285-221.634-224.285s-221.635 112.905-221.635 224.285 99.229 146.831 221.634 146.831 221.635-35.45 221.635-146.831z" fill="#f2f2f2"/><path d="m389.221 382.596c-36 12.95-79.87 18.25-127.21 18.25-122.41 0-221.64-35.45-221.64-146.83s99.23-224.28 221.64-224.28c.7 0 1.39 0 2.08.01-83.01 35.3-141.91 122.01-141.91 207.82 0 111.38 99.23 146.83 221.63 146.83 15.56 0 30.75-.57 45.41-1.8z" fill="#e2e0e0"/><path d="m303.805 273.372c-.916-2.604-3.769-3.973-6.376-3.057-.278.098-2.407.859-5.987 2.383.198-.788.229-1.629.009-2.471-.696-2.672-3.426-4.273-6.1-3.576-1.282.334-31.828 8.475-68.925 33.095-7.886 5.234-16.418 11.486-25.194 18.836-.169.116-.342.221-.499.36-9.3 8.239-22.9 4.935-23.018 4.906-2.67-.694-5.403.907-6.098 3.58s.907 5.403 3.58 6.098c.321.084 3.717.933 8.534 1.006-23.953 23.747-47.831 55.983-64.049 98.797-.978 2.583.322 5.469 2.905 6.447.583.221 1.182.326 1.77.326 2.018 0 3.919-1.231 4.677-3.23 25.235-66.62 69.721-106.691 102.596-128.575 21.315-14.189 40.647-22.79 52.855-27.443-8.481 4.501-18.79 10.577-30.045 18.502-26.875 18.924-64.302 52.386-89.98 104.326-1.224 2.476-.209 5.474 2.266 6.698.712.352 1.468.519 2.212.519 1.842 0 3.614-1.022 4.486-2.785 15.762-31.881 36.128-56.531 55.518-74.942-.202 4.015.159 6.949.198 7.249.329 2.517 2.477 4.346 4.949 4.346.213 0 .428-.013.644-.041 2.734-.351 4.668-2.855 4.324-5.59-.471-3.745-.491-14.403 4.87-19.209 5.601-4.602 10.98-8.66 15.977-12.188 27.988-19.761 50.465-27.853 50.846-27.989 2.603-.918 3.972-3.773 3.055-6.378z" fill="#69af81"/><g fill="#545f63"><path d="m184.579 236.572c-41.817 41.817-67.484 83.948-100.989 50.443s-26.768-94.566 15.049-136.382 102.877-48.554 136.382-15.049-8.625 59.172-50.442 100.988z"/><path d="m339.431 236.572c41.817 41.817 67.484 83.948 100.989 50.443s26.768-94.566-15.049-136.382-102.877-48.554-136.382-15.049 8.626 59.172 50.442 100.988z"/></g><g fill="#d1d1d1"><path d="m205.141 285.343c-4.142 0-7.5-3.358-7.5-7.5s3.358-7.5 7.5-7.5c46.696 0 49.284-47.639 49.371-49.667.179-4.13 3.661-7.343 7.796-7.181 4.131.167 7.348 3.635 7.192 7.767-.024.649-.692 16.074-8.75 31.604-7.688 14.815-23.576 32.477-55.609 32.477z"/><path d="m318.87 285.343c-32.033 0-47.921-17.662-55.609-32.478-8.058-15.53-8.726-30.955-8.75-31.604-.156-4.139 3.073-7.621 7.212-7.777 4.143-.16 7.612 3.064 7.777 7.196.09 2.077 2.7 49.664 49.37 49.664 4.142 0 7.5 3.358 7.5 7.5s-3.358 7.499-7.5 7.499z"/></g><g><circle cx="339.153" cy="186.955" fill="#2f373b" r="27.138"/><circle cx="350.463" cy="182.166" fill="#fff" r="11.629"/><circle cx="184.857" cy="186.955" fill="#2f373b" r="27.138"/><path d="m191.204 213.341c-2.033.499-4.164.755-6.344.755-14.989 0-27.141-12.152-27.141-27.141s12.152-27.141 27.141-27.141c2.18 0 4.31.256 6.344.755-11.933 2.849-20.785 13.589-20.785 26.386s8.852 23.537 20.785 26.386z" fill="#181e21"/><path d="m345.5 213.341c-2.033.499-4.164.755-6.344.755-14.989 0-27.141-12.152-27.141-27.141s12.152-27.141 27.141-27.141c2.18 0 4.31.256 6.344.755-11.933 2.849-20.785 13.589-20.785 26.386.001 12.797 8.853 23.537 20.785 26.386z" fill="#181e21"/><circle cx="196.166" cy="182.166" fill="#fff" r="11.629"/></g><path d="m283.554 228.402 12.568-21.769c9.873-17.1-2.468-38.476-22.214-38.476h-25.137c-19.746 0-32.087 21.375-22.214 38.476l12.568 21.769c9.874 17.101 34.556 17.101 44.429 0z" fill="#2f373b"/></g></svg>