<?xml version="1.0"?>
<svg xmlns="http://www.w3.org/2000/svg" xmlns:xlink="http://www.w3.org/1999/xlink" xmlns:svgjs="http://svgjs.com/svgjs" version="1.1" width="512" height="512" x="0" y="0" viewBox="0 0 512 512" style="enable-background:new 0 0 512 512" xml:space="preserve" class=""><g><g xmlns="http://www.w3.org/2000/svg"><path d="m473.476 445.716-4.59-40.784c-1.61-14.3-5.094-28.339-10.354-41.729-1.515-3.854-5.866-5.751-9.723-4.238-3.855 1.515-5.753 5.868-4.238 9.723 4.78 12.169 7.946 24.927 9.409 37.922l4.59 40.784c.465 4.123 4.185 7.078 8.292 6.614 4.116-.464 7.077-4.176 6.614-8.292z" fill="#ffffff" data-original="#000000" style="" class=""/><path d="m445.341 336.387-34.526-62.95c-10.093-18.403-25.026-33.282-43.358-43.285v-206.45c-.001-13.069-10.634-23.702-23.703-23.702h-281.575c-13.07 0-23.702 10.633-23.702 23.702v52.963c0 4.143 3.357 7.5 7.5 7.5s7.5-3.357 7.5-7.5v-52.963c0-4.799 3.903-8.702 8.702-8.702h281.575c4.799 0 8.702 3.903 8.702 8.702v249.582l-12.196-10.734c-1.498-1.318-3.111-2.459-4.804-3.433v-213.861c0-7.31-5.946-13.256-13.256-13.256h-238.467c-7.31 0-13.256 5.946-13.256 13.256v390.322c0 7.31 5.946 13.256 13.256 13.256h26.461c4.143 0 7.5-3.357 7.5-7.5s-3.357-7.5-7.5-7.5h-24.717v-386.834h234.979v208.22c-10.535.141-19.94 5.753-25.105 14.662-5.618 9.691-5.198 21.951 1.07 31.234l24.035 35.59v97.127h-180.276c-4.143 0-7.5 3.357-7.5 7.5s3.357 7.5 7.5 7.5h182.02c7.31 0 13.256-5.946 13.256-13.256v-45.88c2.829 14.845 8.619 28.916 17 41.404v57.196c0 4.799-3.903 8.702-8.702 8.702h-281.575c-4.799 0-8.702-3.903-8.702-8.702v-381.645c0-4.143-3.357-7.5-7.5-7.5s-7.5 3.357-7.5 7.5v381.646c0 13.069 10.633 23.702 23.702 23.702h281.575c13.069 0 23.702-10.633 23.702-23.702v-39.227l26.034 25.401c2.962 2.89 7.711 2.837 10.605-.131 2.893-2.965 2.834-7.713-.131-10.605l-26.224-25.586c-17.055-16.64-27.367-38.895-29.036-62.665l-1.72-24.499c-.092-1.313-.528-2.58-1.266-3.672l-36.867-54.592c-3.074-4.552-3.28-10.564-.525-15.317 4.561-7.866 15.183-9.613 22.022-3.595l42.824 37.691c3.108 2.734 7.849 2.435 10.585-.675s2.435-7.849-.675-10.585l-15.628-13.755v-38.813c12.539 8.366 22.862 19.585 30.206 32.976l34.526 62.95c1.982 3.613 6.534 4.97 10.183 2.97 3.634-1.992 4.963-6.55 2.972-10.182z" fill="#ffffff" data-original="#000000" style="" class=""/><path d="m221.072 479.245c4.143 0 7.5-3.357 7.5-7.5s-3.357-7.5-7.5-7.5h-36.212c-4.143 0-7.5 3.357-7.5 7.5s3.357 7.5 7.5 7.5z" fill="#ffffff" data-original="#000000" style="" class=""/><path d="m110.814 231.765c0 4.143 3.357 7.5 7.5 7.5h102.29c4.143 0 7.5-3.357 7.5-7.5s-3.357-7.5-7.5-7.5h-102.29c-4.143 0-7.5 3.357-7.5 7.5z" fill="#ffffff" data-original="#000000" style="" class=""/><path d="m295.12 231.765c0-4.143-3.357-7.5-7.5-7.5h-41.463c-4.143 0-7.5 3.357-7.5 7.5s3.357 7.5 7.5 7.5h41.463c4.143 0 7.5-3.358 7.5-7.5z" fill="#ffffff" data-original="#000000" style="" class=""/><path d="m118.314 274.393h31.737c4.143 0 7.5-3.357 7.5-7.5s-3.357-7.5-7.5-7.5h-31.737c-4.143 0-7.5 3.357-7.5 7.5s3.357 7.5 7.5 7.5z" fill="#ffffff" data-original="#000000" style="" class=""/><path d="m277.326 266.893c0-4.143-3.357-7.5-7.5-7.5h-94.222c-4.143 0-7.5 3.357-7.5 7.5s3.357 7.5 7.5 7.5h94.222c4.143 0 7.5-3.358 7.5-7.5z" fill="#ffffff" data-original="#000000" style="" class=""/><path d="m118.314 309.521h99.795c4.143 0 7.5-3.357 7.5-7.5s-3.357-7.5-7.5-7.5h-99.795c-4.143 0-7.5 3.357-7.5 7.5s3.357 7.5 7.5 7.5z" fill="#ffffff" data-original="#000000" style="" class=""/><path d="m243.663 309.521h32.723c4.143 0 7.5-3.357 7.5-7.5s-3.357-7.5-7.5-7.5h-32.723c-4.143 0-7.5 3.357-7.5 7.5s3.358 7.5 7.5 7.5z" fill="#ffffff" data-original="#000000" style="" class=""/><path d="m118.314 344.65h80.798c4.143 0 7.5-3.357 7.5-7.5s-3.357-7.5-7.5-7.5h-80.798c-4.143 0-7.5 3.357-7.5 7.5s3.357 7.5 7.5 7.5z" fill="#ffffff" data-original="#000000" style="" class=""/><path d="m287.62 329.65h-62.955c-4.143 0-7.5 3.357-7.5 7.5s3.357 7.5 7.5 7.5h62.955c4.143 0 7.5-3.357 7.5-7.5s-3.357-7.5-7.5-7.5z" fill="#ffffff" data-original="#000000" style="" class=""/><path d="m118.314 379.778h47.121c4.143 0 7.5-3.357 7.5-7.5s-3.357-7.5-7.5-7.5h-47.121c-4.143 0-7.5 3.357-7.5 7.5s3.357 7.5 7.5 7.5z" fill="#ffffff" data-original="#000000" style="" class=""/><path d="m287.62 364.778h-96.632c-4.143 0-7.5 3.357-7.5 7.5s3.357 7.5 7.5 7.5h96.632c4.143 0 7.5-3.357 7.5-7.5s-3.357-7.5-7.5-7.5z" fill="#ffffff" data-original="#000000" style="" class=""/><path d="m118.314 414.907h83.828c4.143 0 7.5-3.357 7.5-7.5s-3.357-7.5-7.5-7.5h-83.828c-4.143 0-7.5 3.357-7.5 7.5s3.357 7.5 7.5 7.5z" fill="#ffffff" data-original="#000000" style="" class=""/><path d="m287.62 399.907h-59.925c-4.143 0-7.5 3.357-7.5 7.5s3.357 7.5 7.5 7.5h59.925c4.143 0 7.5-3.357 7.5-7.5s-3.357-7.5-7.5-7.5z" fill="#ffffff" data-original="#000000" style="" class=""/><path d="m237.229 65.927c-15.916 0-30.101 9.769-36.093 24.045-1.515-.153-3.048-.235-4.596-.235-21.126 0-39.118 14.47-43.796 34.795-8.757.636-16.863 4.412-23.059 10.795-6.813 7.019-10.405 16.265-10.115 26.035.568 19.169 16.912 34.764 36.432 34.764h84.772c10.948 0 21.202-4.32 28.875-12.166 7.669-7.843 11.758-18.194 11.513-29.149-.237-10.606-4.716-20.328-11.8-27.475 4.5-6.5 6.991-14.285 6.991-22.284.001-21.574-17.551-39.125-39.124-39.125zm0 15c13.303 0 24.125 10.822 24.125 24.124 0 5.013-1.504 9.751-4.299 13.75-4.132-1.849-8.617-3.027-13.321-3.365-2.19-.158-4.382-.14-6.549.052-4.538-9.615-12.163-17.091-21.409-21.455 4.058-7.857 12.289-13.106 21.453-13.106zm21.696 92.545c-4.827 4.936-11.272 7.653-18.15 7.653h-84.772c-11.49 0-21.107-9.065-21.438-20.209-.169-5.682 1.921-11.059 5.884-15.143 3.968-4.087 9.277-6.338 14.979-6.338h.018c5.762 0 10.618-4.074 11.552-9.69 2.414-14.491 14.84-25.009 29.544-25.009 12.278 0 23.188 7.374 27.793 18.783 2.02 5.012 7.175 7.938 12.554 7.106 1.886-.293 3.83-.368 5.77-.229 12.894.927 23.22 11.798 23.51 24.749.151 6.885-2.421 13.394-7.244 18.327z" fill="#ffffff" data-original="#000000" style="" class=""/></g></g></svg>
